<?xml version="1.0" standalone="no"?>
<!DOCTYPE svg PUBLIC "-//W3C//DTD SVG 1.1//EN" "http://www.w3.org/Graphics/SVG/1.1/DTD/svg11.dtd" >
<svg xmlns="http://www.w3.org/2000/svg">
<metadata></metadata>
<defs>
<font id="diamanteef-demiboldregular" horiz-adv-x="948" >
<font-face units-per-em="2048" ascent="1638" descent="-410" />
<missing-glyph horiz-adv-x="446" />
<glyph horiz-adv-x="0" />
<glyph horiz-adv-x="682" />
<glyph unicode=" "  horiz-adv-x="446" />
<glyph unicode="&#x09;" horiz-adv-x="446" />
<glyph unicode="&#xa0;" horiz-adv-x="446" />
<glyph unicode="!" horiz-adv-x="540" d="M150 0v279h239v-279h-239zM152 350v1016h239v-1016h-239z" />
<glyph unicode="&#x22;" horiz-adv-x="868" d="M160 1366h217l-37 -547h-145zM492 1366h217l-35 -547h-146z" />
<glyph unicode="#" horiz-adv-x="1228" d="M51 408l29 172h219l37 235h-219l28 172h220l61 379h195l-62 -379h242l59 379h197l-62 -379h217l-28 -172h-217l-39 -235h217l-29 -172h-215l-65 -408h-195l64 408h-240l-66 -408h-194l65 408h-219zM496 580h239l37 235h-240z" />
<glyph unicode="$" horiz-adv-x="917" d="M78 139v326l244 39v-297h270v295l-512 311v418l133 135h149v127h211v-127h132l135 -131v-264l-246 -41v233h-268v-219l510 -309v-500l-136 -135h-143v-125h-201v125h-139z" />
<glyph unicode="%" horiz-adv-x="1531" d="M104 705v540l117 121h324l119 -121v-540l-117 -113h-328zM289 733h188v488h-188v-488zM399 0l615 1366h127l-615 -1366h-127zM872 115v532l119 115h318l118 -115v-532l-116 -115h-322zM1055 143h190v478h-190v-478z" />
<glyph unicode="&#x26;" horiz-adv-x="1048" d="M94 113v497l107 107l-105 104v439l107 106h418v-186h-291v-371h202v-188h-204v-428h377v708h-115v109h409v-109h-86v-790l-106 -111h-606z" />
<glyph unicode="'" horiz-adv-x="536" d="M160 1366h217l-37 -547h-143z" />
<glyph unicode="(" horiz-adv-x="540" d="M147 -207v1546l82 136h211l-88 -136v-1546l88 -135h-211z" />
<glyph unicode=")" horiz-adv-x="540" d="M100 -342l88 135v1546l-88 136h211l82 -136v-1546l-82 -135h-211z" />
<glyph unicode="*" horiz-adv-x="839" d="M82 1075l45 131l225 -82l-2 242h139l-4 -242l226 82l47 -131l-230 -76l144 -192l-111 -82l-143 199l-144 -197l-112 82l147 190z" />
<glyph unicode="+" horiz-adv-x="1021" d="M68 598v176h348v338h190v-338h348v-176h-348v-336h-190v336h-348z" />
<glyph unicode="," horiz-adv-x="538" d="M147 0v295h244v-295q0 -2 -20.5 -64t-44.5 -135t-27 -82h-76v281h-76z" />
<glyph unicode="-" horiz-adv-x="475" d="M0 518v193h475v-193h-475z" />
<glyph unicode="." horiz-adv-x="540" d="M150 0v295h241v-295h-241z" />
<glyph unicode="/" horiz-adv-x="876" d="M35 -61l661 1491h191l-662 -1491h-190z" />
<glyph unicode="0" horiz-adv-x="907" d="M78 133v1098l133 135h485l133 -135v-1098l-131 -133h-489zM322 207h264v950h-264v-950z" />
<glyph unicode="1" horiz-adv-x="909" d="M215 1178v114q9 3 65 22t105 35.5t51 16.5h193v-1366h-242v1178h-172z" />
<glyph unicode="2" horiz-adv-x="907" d="M74 0v518l112 117l406 172v348h-275v-225l-243 -37v342l131 131h497l132 -135v-508l-111 -117l-408 -172v-217h514v-217h-755z" />
<glyph unicode="3" horiz-adv-x="907" d="M74 133v301l241 41v-270h277v411h-217v175h219v364h-275v-266l-243 45v295l135 137h487l136 -137v-410l-115 -117l115 -114v-459l-136 -129h-493z" />
<glyph unicode="4" horiz-adv-x="909" d="M20 295v188l422 883h338v-879h101v-192h-103v-295h-241v295h-517zM233 487h308v629z" />
<glyph unicode="5" horiz-adv-x="909" d="M76 135v295l243 47v-268h273v467h-385l-127 129v561h715v-217h-476v-256h377l138 -133v-625l-136 -135h-487z" />
<glyph unicode="6" horiz-adv-x="909" d="M76 133v1096l131 137h495l132 -133v-256l-242 -41v221h-275v-366l78 73h301l135 -133v-600l-131 -131h-491zM317 209h277v446h-277v-446z" />
<glyph unicode="7" horiz-adv-x="907" d="M53 1149v217h801v-174l-516 -1192h-256l506 1149h-535z" />
<glyph unicode="8" horiz-adv-x="909" d="M78 131v459l115 110l-113 115v418l135 133h479l135 -133v-418l-112 -115l114 -110v-459l-133 -131h-487zM319 207h271v414h-271v-414zM322 793h266v364h-266v-364z" />
<glyph unicode="9" horiz-adv-x="909" d="M74 129v258l243 39v-223h275v364l-78 -71h-301l-137 129v608l135 133h491l134 -137v-1096l-134 -133h-493zM319 702h273v453h-273v-453z" />
<glyph unicode=":" horiz-adv-x="542" d="M150 0v295h241v-295h-241zM152 725v295h241v-295h-241z" />
<glyph unicode=";" horiz-adv-x="538" d="M147 0v295h244v-295q0 -2 -20.5 -64t-44.5 -135t-27 -82h-76v281h-76zM150 725v295h239v-295h-239z" />
<glyph unicode="&#x3c;" horiz-adv-x="1021" d="M68 598v162l886 428v-189l-686 -321l686 -322v-186z" />
<glyph unicode="=" horiz-adv-x="1021" d="M68 430v176h886v-176h-886zM68 768v176h886v-176h-886z" />
<glyph unicode="&#x3e;" horiz-adv-x="1021" d="M68 170v188l686 322l-686 321v187l886 -428v-162z" />
<glyph unicode="?" horiz-adv-x="931" d="M86 1006v227l135 133h488l133 -131v-469l-375 -164v-252h-236v393l369 158v256h-274v-182zM231 0v279h236v-279h-236z" />
<glyph unicode="@" horiz-adv-x="1501" d="M70 379q0 143 56.5 273.5t151 224t225 149t273.5 55.5q178 0 326.5 -72t239 -211t90.5 -319q0 -84 -25 -170q-15 -53 -43 -105t-66.5 -98.5t-91 -75t-108.5 -28.5q-60 0 -103.5 34t-52.5 91q-41 -63 -110 -100t-144 -37q-131 0 -210 95.5t-79 229.5q0 103 44.5 196 t129.5 153.5t189 60.5q71 0 126 -33.5t85 -97.5l20 108h140l-80 -411q-15 -78 -15 -92q0 -33 16.5 -57.5t47.5 -24.5q45 0 86.5 41t64.5 89.5t35 94.5q19 68 19 131q0 112 -41 204t-112.5 152t-167.5 92.5t-206 32.5q-159 0 -291.5 -78.5t-208 -213t-75.5 -293.5 q0 -170 76 -300.5t209.5 -200t302.5 -69.5q223 0 411 80l35 -125q-195 -80 -442 -80q-208 0 -373 86.5t-259.5 248t-94.5 370.5zM557 319q0 -79 44 -133.5t122 -54.5q66 0 115 46t70.5 108t21.5 127q0 73 -42.5 121.5t-113.5 48.5q-94 0 -155.5 -82.5t-61.5 -180.5z" />
<glyph unicode="A" d="M14 0l283 1366h354l283 -1366h-258l-64 315h-274l-64 -315h-260zM352 530h244q-6 28 -32.5 153t-37 177t-26.5 146t-25 170q-1 -6 -9 -76t-15 -105z" />
<glyph unicode="B" horiz-adv-x="968" d="M104 0v1366h623l135 -135v-408l-106 -116l108 -111v-461l-139 -135h-621zM346 209h275v393h-275v-393zM346 809h272v348h-272v-348z" />
<glyph unicode="C" horiz-adv-x="966" d="M104 135v1096l136 135h481l137 -135v-316l-242 -34v276h-270v-948h270v317l244 37v-432l-133 -131h-487z" />
<glyph unicode="D" horiz-adv-x="991" d="M104 0v1366h652l131 -133v-1098l-137 -135h-646zM348 211h297v948h-297v-948z" />
<glyph unicode="E" horiz-adv-x="841" d="M104 0v1366h660v-223h-416v-324h383v-223h-383v-365h414v-231h-658z" />
<glyph unicode="F" horiz-adv-x="794" d="M104 0v1366h662v-223h-418v-324h385v-223h-387v-596h-242z" />
<glyph unicode="G" horiz-adv-x="993" d="M104 135v1098l136 133h518l131 -131v-281l-242 -34v243h-299v-958h297v401h-205v207h447v-680l-133 -133h-516z" />
<glyph unicode="H" horiz-adv-x="995" d="M104 0v1366h242v-518h303v518h242v-1366h-242v608h-303v-608h-242z" />
<glyph unicode="I" horiz-adv-x="452" d="M104 0v1366h244v-1366h-244z" />
<glyph unicode="J" horiz-adv-x="866" d="M59 135v397l244 31v-354h213v1157h246v-1233l-135 -133h-434z" />
<glyph unicode="K" horiz-adv-x="952" d="M104 0v1366h244v-551l266 551h273l-320 -610l363 -756h-279l-303 655v-655h-244z" />
<glyph unicode="L" horiz-adv-x="749" d="M104 0v1366h242v-1135h375v-231h-617z" />
<glyph unicode="M" horiz-adv-x="1372" d="M104 0v1366h355l203 -829q6 -26 10.5 -66t8 -92t5.5 -68q9 171 23 226l204 829h355v-1366h-224v870q0 48 5 138t6 127q-24 -190 -47 -285l-211 -850h-222l-213 850q-12 47 -24 141q-2 16 -10.5 66t-10.5 78q0 -44 4.5 -133t4.5 -134v-868h-222z" />
<glyph unicode="N" horiz-adv-x="1091" d="M104 0v1366h285l342 -831q12 -29 22 -63.5t20.5 -76.5t17.5 -65q-2 15 -4.5 44.5t-4.5 45.5q-14 96 -14 123v823h219v-1366h-278l-347 842q-16 38 -34.5 112.5t-26.5 100.5q1 -10 13 -92.5t12 -126.5v-836h-222z" />
<glyph unicode="O" horiz-adv-x="985" d="M104 133v1100l134 133h510l133 -133v-1100l-136 -133h-505zM348 209h289v948h-289v-948z" />
<glyph unicode="P" horiz-adv-x="958" d="M104 0v1366h650l131 -131v-594l-137 -135h-400v-506h-244zM348 715h291v442h-291v-442z" />
<glyph unicode="Q" horiz-adv-x="985" d="M104 133v1100l134 133h510l133 -133v-1100l-136 -133h-131v-219h-241v219h-133zM348 209h289v948h-289v-948z" />
<glyph unicode="R" horiz-adv-x="968" d="M104 0v1366h627l133 -137v-406l-114 -116l114 -109v-598h-241v606h-277v-606h-242zM348 807h275v358h-275v-358z" />
<glyph unicode="S" horiz-adv-x="970" d="M104 139v326l244 39v-297h270v295l-512 311v418l134 135h491l135 -131v-264l-245 -41v233h-269v-219l510 -309v-500l-135 -135h-483z" />
<glyph unicode="T" horiz-adv-x="763" d="M2 1139v227h760v-227h-260v-1139h-242v1139h-258z" />
<glyph unicode="U" horiz-adv-x="989" d="M104 133v1233h242v-1157h297v1157h242v-1233l-133 -133h-514z" />
<glyph unicode="V" horiz-adv-x="905" d="M0 1366h250l180 -920q7 -36 11 -77.5t6.5 -92t5.5 -79.5q2 35 10 120q1 14 2.5 40.5t3.5 48t6 40.5l180 920h250l-297 -1366h-313z" />
<glyph unicode="W" horiz-adv-x="1488" d="M27 1366h235l133 -846q19 -116 19 -151q0 -5 -1 -16t-1 -17q0 -16 1 -33.5t2.5 -38.5t2.5 -33q6 45 14 142q1 12 3 65t7 82l150 846h309l143 -846q9 -57 13 -147q0 -2 12 -142q6 44 12 141t13 148l133 846h235l-215 -1366h-329l-148 864q-18 97 -18 129q0 3 1 10t1 11 q0 6 -11 108l-12 -129q-1 -14 -2.5 -40.5t-3.5 -48t-6 -40.5l-148 -864h-329z" />
<glyph unicode="X" horiz-adv-x="954" d="M14 0l314 694l-287 672h264l133 -354q10 -28 39 -176q27 141 39 176l131 354h266l-286 -672l313 -694h-276l-144 373q-8 21 -15 47t-10.5 44t-9.5 51t-8 46q-21 -131 -43 -188l-143 -373h-277z" />
<glyph unicode="Y" horiz-adv-x="845" d="M-8 1366h262l147 -471q7 -23 11 -51t6.5 -62t5.5 -53q2 17 4 52t5.5 63t10.5 51l148 471h262l-311 -846v-520h-240v520z" />
<glyph unicode="Z" horiz-adv-x="897" d="M63 0v195l457 913q6 13 74 61q-87 -26 -94 -26h-402v223h736v-180l-459 -914q-13 -26 -80 -73q80 32 106 32h430v-231h-768z" />
<glyph unicode="[" horiz-adv-x="540" d="M141 -342v1817h326v-175h-117v-1468h117v-174h-326z" />
<glyph unicode="\" horiz-adv-x="1024" d="M53 1403h189l692 -1745h-189z" />
<glyph unicode="]" horiz-adv-x="538" d="M74 -168h116v1468h-116v175h325v-1817h-325v174z" />
<glyph unicode="^" horiz-adv-x="1024" d="M37 725l350 641h250l350 -641h-203l-272 489l-272 -489h-203z" />
<glyph unicode="_" horiz-adv-x="1024" d="M0 -123h1024v-176h-1024v176z" />
<glyph unicode="`" horiz-adv-x="1024" d="M379 1382h199l69 -258h-147z" />
<glyph unicode="a" horiz-adv-x="952" d="M104 104v392l111 114h399v228h-260v-156h-221v231l107 107h503l105 -105v-915h-234v63l-59 -63h-346zM334 178h284v283h-284v-283z" />
<glyph unicode="b" d="M104 0v1366h238v-408l66 62h331l105 -109v-802l-107 -109h-331l-68 63v-63h-234zM340 190h268v641h-268v-641z" />
<glyph unicode="c" d="M104 106v805l107 109h528l105 -105v-258l-236 -28v200h-270v-636h268v213l236 32v-334l-105 -104h-522z" />
<glyph unicode="d" horiz-adv-x="946" d="M104 109v806l107 105h332l65 -64v410h234v-1366h-236v61l-61 -61h-334zM340 190h268v644h-268v-644z" />
<glyph unicode="e" horiz-adv-x="956" d="M104 106v807l109 107h535l104 -107v-440l-516 -70v-215h276v154h234v-238l-105 -104h-522zM336 543l282 41v258h-282v-299z" />
<glyph unicode="f" horiz-adv-x="542" d="M43 834v186h92v229l115 117h289v-180h-170v-166h168v-186h-170v-834h-234v834h-90z" />
<glyph unicode="g" d="M104 113v800l107 107h344l59 -55v55h230v-1251l-113 -111h-493l-105 106v175h219v-119h258v239l-61 -59h-336zM340 190h272v641h-272v-641z" />
<glyph unicode="h" horiz-adv-x="946" d="M104 0v1366h236v-408l63 62h336l103 -102v-918h-234v834h-270v-834h-234z" />
<glyph unicode="i" horiz-adv-x="448" d="M104 0v1020h234v-1020h-234zM104 1143v223h238v-223h-238z" />
<glyph unicode="j" horiz-adv-x="442" d="M-29 -164h133v1184h234v-1247l-113 -115h-254v178zM102 1143v223h236v-223h-236z" />
<glyph unicode="k" horiz-adv-x="884" d="M104 0v1366h234v-782l237 436h261l-263 -449l314 -571h-275l-274 514v-514h-234z" />
<glyph unicode="l" horiz-adv-x="442" d="M104 0v1366h234v-1366h-234z" />
<glyph unicode="m" horiz-adv-x="1447" d="M104 0v1020h236v-62l63 62h377l64 -59l61 59h338l100 -107v-913h-233v834h-268v-834h-236v834h-268v-834h-234z" />
<glyph unicode="n" d="M104 0v1020h236v-57l66 57h329l109 -107v-913h-236v831h-270v-831h-234z" />
<glyph unicode="o" d="M104 109v806l113 105h514l113 -105v-806l-115 -109h-510zM338 193h272v638h-272v-638z" />
<glyph unicode="p" horiz-adv-x="950" d="M104 -342v1362h236v-59l59 59h349l98 -102v-805l-113 -113h-332l-63 63v-405h-234zM340 190h270v641h-270v-641z" />
<glyph unicode="q" d="M104 113v798l109 109h344l55 -59v59h232v-1362h-234v403l-57 -61h-342zM340 190h270v639h-270v-639z" />
<glyph unicode="r" horiz-adv-x="571" d="M104 0v1020h234v-57l57 57h154v-186h-211v-834h-234z" />
<glyph unicode="s" horiz-adv-x="923" d="M104 111v215l232 36v-180h252v201l-484 180v348l109 109h502l104 -102v-211l-233 -33v170h-252v-178l485 -179v-383l-104 -104h-500z" />
<glyph unicode="t" horiz-adv-x="565" d="M43 834v186h92v229h232v-229h174v-186h-174v-641h174v-193h-297l-111 106v728h-90z" />
<glyph unicode="u" horiz-adv-x="944" d="M104 109v911h236v-830h266v830h234v-1020h-234v59l-59 -59h-338z" />
<glyph unicode="v" horiz-adv-x="782" d="M10 1020h230l129 -598q5 -22 7 -63.5t3 -51.5q2 -22 6 -65.5t6 -65.5q8 74 15 162q5 70 8 84l129 598h229l-227 -1020h-307z" />
<glyph unicode="w" horiz-adv-x="1357" d="M14 1020h236l123 -588q12 -57 20 -180q2 13 6.5 41t6.5 41q10 84 14 102l135 584h248l133 -584q1 -5 3 -14t3 -14q6 -29 13.5 -85t9.5 -71q2 17 5 56t6.5 68.5t8.5 55.5l123 588h235l-225 -1020h-282l-131 561q-7 29 -27 189q-18 -140 -29 -189l-127 -561h-282z" />
<glyph unicode="x" horiz-adv-x="851" d="M16 0l260 518l-241 502h250l123 -281q4 -8 7 -27t6.5 -43t4.5 -30q1 6 4.5 30t6.5 43t7 27l123 281h250l-242 -502l261 -518h-261l-129 291v2q-6 15 -9.5 34t-6 44.5t-4.5 36.5q0 -9 -8.5 -59.5t-11.5 -57.5l-130 -291h-260z" />
<glyph unicode="y" horiz-adv-x="946" d="M104 113v907h236v-827h270v827h232v-1253l-113 -109h-493l-105 111v168h217v-115h262v239l-61 -61h-338z" />
<glyph unicode="z" horiz-adv-x="778" d="M47 0v150l365 636q4 8 16 21t30.5 30t20.5 19q-78 -27 -92 -27h-297v189l635 2v-148l-365 -639q-3 -7 -13 -18t-18 -19.5t-21.5 -21.5t-16.5 -16q5 2 20.5 9.5t26.5 12t24.5 9t22.5 4.5h336v-193h-674z" />
<glyph unicode="{" horiz-adv-x="540" d="M18 502v151q28 7 48.5 17.5t33 28t19.5 31.5t10 40.5t3.5 42t0.5 47.5v14v334q0 152 73 215.5t228 63.5q59 0 88 -2v-166q-32 0 -48.5 -0.5t-40 -2.5t-35 -6t-26.5 -11.5t-22 -19.5t-14 -28.5t-9.5 -39t-2.5 -52.5v-350q0 -93 -25 -145t-100 -93q73 -41 99 -95t26 -144 v-344q0 -48 8 -78.5t20 -48t40.5 -25.5t53.5 -10t76 -2v-164q-16 0 -46 -1t-46 -1q-156 0 -226.5 67t-70.5 222v375q0 75 -24 119.5t-91 60.5z" />
<glyph unicode="|" horiz-adv-x="1026" d="M418 -342v1708h190v-1708h-190z" />
<glyph unicode="}" horiz-adv-x="540" d="M18 -176q42 0 64 1t49.5 6t40 15t25 28.5t16.5 46t4 67.5v344q0 89 26 143.5t97 95.5q-75 42 -99 93t-24 145v350q0 34 -4.5 58.5t-10.5 42t-21 29t-27 17.5t-37.5 9t-44 3.5t-54.5 0.5v166q31 2 91 2q153 0 225 -64t72 -215v-334q0 -98 9 -130q20 -71 107 -91v-151 q-68 -14 -92 -58.5t-24 -121.5v-375q0 -156 -68.5 -222.5t-224.5 -66.5q-15 0 -47 1t-48 1v164z" />
<glyph unicode="~" horiz-adv-x="1366" d="M88 627q32 55 51 85t52.5 70.5t64 61t76.5 36t100 15.5q61 0 135 -23.5t131 -51.5t124 -51.5t116 -23.5q42 0 73 9.5t57 32.5t42.5 44.5t42.5 61.5l125 -72q-38 -63 -71.5 -105.5t-78 -79.5t-100.5 -55t-125 -18q-54 0 -123 23t-124.5 51t-122 51t-117.5 23 q-38 0 -69 -12.5t-57 -39t-42 -48.5t-39 -60z" />
<glyph unicode="&#xa1;" horiz-adv-x="540" d="M150 -348v1014h239v-1014h-239zM152 739v279h239v-279h-239z" />
<glyph unicode="&#xa2;" horiz-adv-x="894" d="M78 106v805l106 109h170v125h211v-125h148l104 -105v-258l-235 -28v200h-271v-636h269v213l235 32v-334l-104 -104h-152v-129h-209v129h-162z" />
<glyph unicode="&#xa3;" horiz-adv-x="1005" d="M66 0v209h84v379h-84v108h84v533l135 137h485l135 -137v-252l-241 -84v262h-273v-459h336v-108h-336v-379h295v240l242 -50v-399h-862z" />
<glyph unicode="&#xa4;" horiz-adv-x="1366" d="M80 1229l108 110l203 -202q72 51 141.5 74.5t155.5 23.5q148 0 283 -96l200 198l111 -108l-201 -201q101 -144 101 -289q0 -141 -99 -284l203 -201l-108 -111l-203 203q-133 -100 -293 -100q-142 0 -291 98l-198 -201l-109 109l201 201q-101 135 -101 286q0 155 99 287z M365 739q0 -130 94 -223.5t225 -93.5q130 0 223.5 93t93.5 224t-93.5 224.5t-223.5 93.5q-132 0 -225.5 -93t-93.5 -225z" />
<glyph unicode="&#xa5;" horiz-adv-x="940" d="M39 1366h262l150 -471q7 -24 11 -51t6.5 -64t4.5 -51q2 15 4.5 51.5t6 63.5t10.5 51l147 471h260l-262 -719h229v-108h-264l-12 -25v-59h276v-109h-276v-346h-240v346h-278v109h280v61q0 1 -3 10.5t-3 10.5h-274v110h233z" />
<glyph unicode="&#xa6;" horiz-adv-x="1026" d="M418 313h190v-655h-190v655zM418 674v692h190v-692h-190z" />
<glyph unicode="&#xa7;" horiz-adv-x="1046" d="M154 -76h208v-65h322v250l-430 106l-100 102v955l102 94h539l96 -94v-160h-209v66h-322v-230l433 -106l98 -111v-952l-103 -121h-532l-102 113v153zM362 334l320 -76v465l-320 76v-465z" />
<glyph unicode="&#xa8;" horiz-adv-x="1024" d="M229 1143v223h222v-223h-222zM575 1143v223h220v-223h-220z" />
<glyph unicode="&#xa9;" horiz-adv-x="1564" d="M82 684q0 143 55.5 273t150 224t225 149.5t273.5 55.5q113 0 219.5 -36t192.5 -101.5t150.5 -152t99.5 -193t35 -219.5q0 -142 -55 -272t-148 -224.5t-222.5 -151t-271.5 -56.5q-143 0 -273.5 55.5t-225 150t-150 225t-55.5 273.5zM209 684q0 -158 75.5 -293t208 -215 t291.5 -80q157 0 289.5 80.5t207.5 215.5t75 292q0 116 -45 224t-121 187.5t-182.5 127t-223.5 47.5q-159 0 -291.5 -79.5t-208 -214t-75.5 -292.5zM561 350v666l76 76h289l78 -76v-189l-140 -20v164h-164v-576h164v189l140 20v-256l-74 -74h-293z" />
<glyph unicode="&#xaa;" horiz-adv-x="663" d="M90 549v100h483v-100h-483zM92 815v238l74 71h248v121h-152v-67h-151v122l71 66h320l69 -66v-550h-157v34l-35 -34h-217zM248 868h168v154h-168v-154z" />
<glyph unicode="&#xab;" horiz-adv-x="870" d="M106 496l162 430h185l-166 -430l168 -412h-183zM416 496l164 430h182l-166 -430l168 -412h-182z" />
<glyph unicode="&#xac;" horiz-adv-x="1021" d="M68 371v176h886v-547h-190v371h-696z" />
<glyph unicode="&#xad;" horiz-adv-x="475" d="M0 518v193h475v-193h-475z" />
<glyph unicode="&#xae;" horiz-adv-x="1028" d="M90 1133q0 174 125 296.5t299 122.5t299 -122.5t125 -296.5q0 -175 -124.5 -298.5t-299.5 -123.5t-299.5 123.5t-124.5 298.5zM174 1133q0 -141 99.5 -240.5t240.5 -99.5t240.5 99.5t99.5 240.5q0 139 -100 238t-240 99t-240 -99t-100 -238zM387 897v467h211l43 -45v-141 l-37 -37l37 -37v-207h-82v209h-90v-209h-82zM469 1176h90v118h-90v-118z" />
<glyph unicode="&#xaf;" horiz-adv-x="1024" d="M225 1202v150h572v-150h-572z" />
<glyph unicode="&#xb0;" horiz-adv-x="819" d="M106 1092q0 123 90 208.5t214 85.5t213.5 -85.5t89.5 -208.5q0 -125 -89 -212t-214 -87t-214.5 87t-89.5 212zM244 1090q0 -68 49 -116t117 -48t116.5 47.5t48.5 116.5q0 68 -48.5 115.5t-116.5 47.5t-117 -47.5t-49 -115.5z" />
<glyph unicode="&#xb1;" horiz-adv-x="1021" d="M68 111v176h886v-176h-886zM68 702v177h348v338h190v-338h348v-177h-348v-337h-190v337h-348z" />
<glyph unicode="&#xb2;" horiz-adv-x="579" d="M37 528v328l78 76l247 100v176h-145v-108l-180 -25v205l92 86h322l92 -88v-315l-78 -76l-248 -101v-98h324v-160h-504z" />
<glyph unicode="&#xb3;" horiz-adv-x="579" d="M37 610v193l168 26v-163h164v233h-138v121h142v203h-166v-160l-170 31v184l92 88h320l92 -88v-252l-72 -68l70 -65v-285l-90 -82h-324z" />
<glyph unicode="&#xb4;" horiz-adv-x="1024" d="M379 1124l70 258h198l-121 -258h-147z" />
<glyph unicode="&#xb6;" horiz-adv-x="1249" d="M47 1001q0 101 36.5 174t102.5 113.5t144.5 59t175.5 18.5h598v-149h-133v-1559h-162v1559h-201v-1559h-162v991h-26q-162 0 -267.5 96t-105.5 256z" />
<glyph unicode="&#xb7;" horiz-adv-x="540" d="M150 483v293h241v-293h-241z" />
<glyph unicode="&#xb8;" horiz-adv-x="1026" d="M383 -225l72 258h80l-29 -154l137 -53v-100l-154 -181h-73l104 187z" />
<glyph unicode="&#xb9;" horiz-adv-x="577" d="M119 1223v96q12 5 80 26t71 21h138v-840h-181v697h-108z" />
<glyph unicode="&#xba;" horiz-adv-x="659" d="M88 549v100h483v-100h-483zM90 815v481l78 70h326l77 -70v-481l-79 -70h-322zM252 881h158v360h-158v-360z" />
<glyph unicode="&#xbb;" horiz-adv-x="870" d="M106 926h183l166 -412l-164 -430h-182l165 430zM416 926h182l166 -412l-162 -430h-184l166 430z" />
<glyph unicode="&#xbc;" horiz-adv-x="1595" d="M96 1223v96q12 5 80.5 26t71.5 21h137v-840h-180v697h-109zM391 0l662 1366h110l-661 -1366h-111zM942 174v131l272 533h234v-519h63v-145h-63v-174h-180v174h-326zM1114 319h156v293z" />
<glyph unicode="&#xbd;" horiz-adv-x="1593" d="M78 1223v96q12 5 80 26t71 21h138v-840h-181v697h-108zM356 0l662 1366h110l-661 -1366h-111zM1014 0v328l80 75l245 101v176h-143v-131l-180 -25v228l92 86h319l93 -88v-316l-78 -76l-248 -100v-98h324v-160h-504z" />
<glyph unicode="&#xbe;" horiz-adv-x="1595" d="M18 610v193l168 26v-163h166v233h-139v121h141v203h-166v-160l-170 31v184l93 88h319l92 -88v-252l-71 -68l71 -65v-285l-92 -82h-324zM436 0l662 1366h110l-661 -1366h-111zM1004 174v131l272 533h233v-519h64v-145h-64v-174h-180v174h-325zM1176 319h155v293z" />
<glyph unicode="&#xbf;" horiz-adv-x="931" d="M90 -217v469l375 164v250h235v-392l-368 -157v-256h274v182l240 -31v-227l-135 -133h-488zM465 739v279h235v-279h-235z" />
<glyph unicode="&#xc0;" d="M14 0l283 1366h354l283 -1366h-258l-64 315h-274l-64 -315h-260zM317 1733h199l70 -258h-148zM352 530h244q-6 28 -32.5 153t-37 177t-26.5 146t-25 170q-1 -6 -9 -76t-15 -105z" />
<glyph unicode="&#xc1;" d="M14 0l283 1366h354l283 -1366h-258l-64 315h-274l-64 -315h-260zM352 530h244q-6 28 -32.5 153t-37 177t-26.5 146t-25 170q-1 -6 -9 -76t-15 -105zM365 1475l69 258h199l-121 -258h-147z" />
<glyph unicode="&#xc2;" d="M14 0l283 1366h354l283 -1366h-258l-64 315h-274l-64 -315h-260zM221 1475l160 258h192l156 -258h-125l-129 122l-129 -122h-125zM352 530h244q-6 28 -32.5 153t-37 177t-26.5 146t-25 170q-1 -6 -9 -76t-15 -105z" />
<glyph unicode="&#xc3;" d="M14 0l283 1366h354l283 -1366h-258l-64 315h-274l-64 -315h-260zM152 1544l108 105h375l63 61l99 -102l-117 -113h-373l-59 -53zM352 530h244q-6 28 -32.5 153t-37 177t-26.5 146t-25 170q-1 -6 -9 -76t-15 -105z" />
<glyph unicode="&#xc4;" d="M14 0l283 1366h354l283 -1366h-258l-64 315h-274l-64 -315h-260zM193 1475v223h221v-223h-221zM352 530h244q-6 28 -32.5 153t-37 177t-26.5 146t-25 170q-1 -6 -9 -76t-15 -105zM539 1475v223h219v-223h-219z" />
<glyph unicode="&#xc5;" d="M14 0l283 1366h354l283 -1366h-258l-64 315h-274l-64 -315h-260zM256 1653q0 91 64 156t155 65q92 0 156.5 -64.5t64.5 -156.5q0 -91 -65 -155t-156 -64t-155 64t-64 155zM352 530h244q-6 28 -32.5 153t-37 177t-26.5 146t-25 170q-1 -6 -9 -76t-15 -105zM371 1655 q0 -43 31 -75t73 -32q44 0 75.5 31.5t31.5 75.5q0 42 -32 73t-75 31t-73.5 -30.5t-30.5 -73.5z" />
<glyph unicode="&#xc6;" horiz-adv-x="1429" d="M-27 0l555 1366h818v-227h-420v-322h387v-225h-387v-361h417v-231h-661v311h-311l-127 -311h-271zM440 526h242v623z" />
<glyph unicode="&#xc7;" horiz-adv-x="966" d="M104 135v1096l136 135h481l137 -135v-316l-242 -34v276h-270v-948h270v317l244 37v-432l-133 -131h-195l-24 -121l137 -53v-100l-153 -181h-74l104 187l-137 43l61 225h-206z" />
<glyph unicode="&#xc8;" horiz-adv-x="841" d="M104 0v1366h660v-223h-416v-324h383v-223h-383v-365h414v-231h-658zM299 1733h199l69 -258h-147z" />
<glyph unicode="&#xc9;" horiz-adv-x="841" d="M104 0v1366h660v-223h-416v-324h383v-223h-383v-365h414v-231h-658zM299 1475l70 258h198l-121 -258h-147z" />
<glyph unicode="&#xca;" horiz-adv-x="841" d="M104 0v1366h660v-223h-416v-324h383v-223h-383v-365h414v-231h-658zM180 1475l160 258h192l156 -258h-125l-129 122l-129 -122h-125z" />
<glyph unicode="&#xcb;" horiz-adv-x="841" d="M104 0v1366h660v-223h-416v-324h383v-223h-383v-365h414v-231h-658zM152 1475v223h221v-223h-221zM498 1475v223h219v-223h-219z" />
<glyph unicode="&#xcc;" horiz-adv-x="452" d="M76 1733h198l70 -258h-147zM104 0v1366h244v-1366h-244z" />
<glyph unicode="&#xcd;" horiz-adv-x="454" d="M88 0v1366h244v-1366h-244zM92 1475l70 258h198l-120 -258h-148z" />
<glyph unicode="&#xce;" horiz-adv-x="454" d="M-27 1475l160 258h193l155 -258h-125l-129 122l-129 -122h-125zM104 0v1366h244v-1366h-244z" />
<glyph unicode="&#xcf;" horiz-adv-x="452" d="M41 1475v225h145v-225h-145zM104 0v1366h244v-1366h-244zM266 1475v225h146v-225h-146z" />
<glyph unicode="&#xd0;" horiz-adv-x="991" d="M14 606v242h90v518h652l131 -133v-1098l-137 -135h-646v606h-90zM348 211h297v948h-297v-311h182v-242h-182v-395z" />
<glyph unicode="&#xd1;" horiz-adv-x="1091" d="M104 0v1366h285l342 -831q12 -29 22 -63.5t20.5 -76.5t17.5 -65q-2 15 -4.5 44.5t-4.5 45.5q-14 96 -14 123v823h219v-1366h-278l-347 842q-16 38 -34.5 112.5t-26.5 100.5q1 -10 13 -92.5t12 -126.5v-836h-222zM223 1544l109 105h375l63 61l98 -102l-116 -113h-373 l-60 -53z" />
<glyph unicode="&#xd2;" horiz-adv-x="985" d="M104 133v1100l134 133h510l133 -133v-1100l-136 -133h-505zM342 1733h199l69 -258h-147zM348 209h289v948h-289v-948z" />
<glyph unicode="&#xd3;" horiz-adv-x="985" d="M104 133v1100l134 133h510l133 -133v-1100l-136 -133h-505zM348 209h289v948h-289v-948zM375 1475l69 258h199l-121 -258h-147z" />
<glyph unicode="&#xd4;" horiz-adv-x="985" d="M104 133v1100l134 133h510l133 -133v-1100l-136 -133h-505zM240 1475l159 258h193l156 -258h-125l-129 122l-129 -122h-125zM348 209h289v948h-289v-948z" />
<glyph unicode="&#xd5;" horiz-adv-x="985" d="M104 133v1100l134 133h510l133 -133v-1100l-136 -133h-505zM170 1544l109 105h374l64 61l98 -102l-117 -113h-372l-60 -53zM348 209h289v948h-289v-948z" />
<glyph unicode="&#xd6;" horiz-adv-x="985" d="M104 133v1100l134 133h510l133 -133v-1100l-136 -133h-505zM211 1475v223h221v-223h-221zM348 209h289v948h-289v-948zM557 1475v223h219v-223h-219z" />
<glyph unicode="&#xd7;" horiz-adv-x="1021" d="M90 391l297 297l-297 295l125 125l297 -297l295 297l125 -125l-297 -295l297 -297l-125 -125l-295 297l-297 -297z" />
<glyph unicode="&#xd8;" horiz-adv-x="1005" d="M70 -43l82 147l-41 35v1094l133 133h510l55 -51l59 119l68 -43l-74 -134l25 -30v-1094l-135 -133h-506l-43 45l-64 -121zM354 209h291v670l-291 -545v-125zM356 483l293 559v117h-293v-676z" />
<glyph unicode="&#xd9;" horiz-adv-x="989" d="M104 133v1233h242v-1157h297v1157h242v-1233l-133 -133h-514zM360 1733h199l70 -258h-148z" />
<glyph unicode="&#xda;" horiz-adv-x="989" d="M104 133v1233h242v-1157h297v1157h242v-1233l-133 -133h-514zM360 1475l70 258h199l-121 -258h-148z" />
<glyph unicode="&#xdb;" horiz-adv-x="989" d="M104 133v1233h242v-1157h297v1157h242v-1233l-133 -133h-514zM242 1475l159 258h193l156 -258h-125l-129 122l-129 -122h-125z" />
<glyph unicode="&#xdc;" horiz-adv-x="989" d="M104 133v1233h242v-1157h297v1157h242v-1233l-133 -133h-514zM213 1475v223h221v-223h-221zM559 1475v223h219v-223h-219z" />
<glyph unicode="&#xdd;" horiz-adv-x="845" d="M-8 1366h262l147 -471q7 -23 11 -51t6.5 -62t5.5 -53q2 17 4 52t5.5 63t10.5 51l148 471h262l-311 -846v-520h-240v520zM289 1475l69 258h199l-119 -258h-149z" />
<glyph unicode="&#xde;" horiz-adv-x="958" d="M104 0v1366h244v-137h406l131 -131v-594l-137 -135h-400v-369h-244zM348 578h291v442h-291v-442z" />
<glyph unicode="&#xdf;" horiz-adv-x="950" d="M104 0v1255l107 111h528l107 -113v-393l-107 -108l105 -105v-541l-107 -106h-309v193h182v464h-180v193h182v324h-274v-1174h-234z" />
<glyph unicode="&#xe0;" horiz-adv-x="952" d="M104 104v392l111 114h399v228h-260v-156h-221v231l107 107h503l105 -105v-915h-234v63l-59 -63h-346zM319 1382h199l70 -258h-148zM334 178h284v283h-284v-283z" />
<glyph unicode="&#xe1;" horiz-adv-x="952" d="M104 104v392l111 114h399v228h-260v-156h-221v231l107 107h503l105 -105v-915h-234v63l-59 -63h-346zM334 178h284v283h-284v-283zM379 1124l70 258h198l-121 -258h-147z" />
<glyph unicode="&#xe2;" horiz-adv-x="952" d="M104 104v392l111 114h399v228h-260v-156h-221v231l107 107h503l105 -105v-915h-234v63l-59 -63h-346zM223 1124l160 258h192l156 -258h-125l-129 123l-129 -123h-125zM334 178h284v283h-284v-283z" />
<glyph unicode="&#xe3;" horiz-adv-x="952" d="M104 104v392l111 114h399v228h-260v-156h-221v231l107 107h503l105 -105v-915h-234v63l-59 -63h-346zM154 1247l108 105h375l63 61l99 -102l-117 -113h-373l-59 -53zM334 178h284v283h-284v-283z" />
<glyph unicode="&#xe4;" horiz-adv-x="952" d="M104 104v392l111 114h399v228h-260v-156h-221v231l107 107h503l105 -105v-915h-234v63l-59 -63h-346zM211 1143v223h221v-223h-221zM334 178h284v283h-284v-283zM557 1143v223h219v-223h-219z" />
<glyph unicode="&#xe5;" horiz-adv-x="952" d="M104 104v392l111 114h399v228h-260v-156h-221v231l107 107h503l105 -105v-915h-234v63l-59 -63h-346zM254 1368q0 94 65.5 159.5t159.5 65.5q92 0 157.5 -66.5t65.5 -158.5t-65.5 -157.5t-157.5 -65.5t-158.5 65.5t-66.5 157.5zM334 178h284v283h-284v-283zM367 1368 q0 -46 33 -79.5t79 -33.5q44 0 77.5 34.5t33.5 78.5q0 46 -32.5 79.5t-78.5 33.5t-79 -33.5t-33 -79.5z" />
<glyph unicode="&#xe6;" horiz-adv-x="1452" d="M104 109v397l107 108h399v226h-254v-156h-223v234l103 102h434l55 -57l55 57h467l101 -102v-443l-510 -72v-217h274v158h236v-238l-107 -106h-557l-59 57l-64 -57h-346zM334 180h276v287h-276v-287zM838 547l274 37v254h-274v-291z" />
<glyph unicode="&#xe7;" d="M104 106v805l107 109h528l105 -105v-258l-236 -28v200h-270v-636h268v213l236 32v-334l-105 -104h-219l-24 -121l137 -53v-100l-154 -181h-74l105 187l-137 43l61 225h-217z" />
<glyph unicode="&#xe8;" horiz-adv-x="956" d="M104 106v807l109 107h535l104 -107v-440l-516 -70v-215h276v154h234v-238l-105 -104h-522zM336 543l282 41v258h-282v-299zM344 1382h199l69 -258h-147z" />
<glyph unicode="&#xe9;" horiz-adv-x="956" d="M104 106v807l109 107h535l104 -107v-440l-516 -70v-215h276v154h234v-238l-105 -104h-522zM336 543l282 41v258h-282v-299zM344 1124l70 258h198l-120 -258h-148z" />
<glyph unicode="&#xea;" horiz-adv-x="956" d="M104 106v807l109 107h535l104 -107v-440l-516 -70v-215h276v154h234v-238l-105 -104h-522zM223 1124l160 258h192l156 -258h-125l-129 123l-129 -123h-125zM336 543l282 41v258h-282v-299z" />
<glyph unicode="&#xeb;" horiz-adv-x="956" d="M104 106v807l109 107h535l104 -107v-440l-516 -70v-215h276v154h234v-238l-105 -104h-522zM195 1143v223h221v-223h-221zM336 543l282 41v258h-282v-299zM541 1143v223h219v-223h-219z" />
<glyph unicode="&#xec;" horiz-adv-x="446" d="M88 1382h199l69 -258h-147zM104 0v1020h234v-1020h-234z" />
<glyph unicode="&#xed;" horiz-adv-x="446" d="M88 1124l70 258h198l-120 -258h-148zM104 0v1020h234v-1020h-234z" />
<glyph unicode="&#xee;" horiz-adv-x="446" d="M-31 1124l160 258h193l155 -258h-125l-129 123l-129 -123h-125zM106 0v1020h234v-1020h-234z" />
<glyph unicode="&#xef;" horiz-adv-x="448" d="M41 1143v223h145v-223h-145zM106 0v1020h234v-1020h-234zM262 1143v223h146v-223h-146z" />
<glyph unicode="&#xf0;" d="M104 109v669l113 105h383l-147 207l-172 -123v116l116 84l-143 199h162l88 -121l188 133v-116l-131 -95l283 -389v-669l-115 -109h-510zM338 193h272v501h-272v-501z" />
<glyph unicode="&#xf1;" d="M104 0v1020h236v-57l66 57h329l109 -107v-913h-236v831h-270v-831h-234zM152 1247l108 105h375l63 61l99 -102l-117 -113h-373l-59 -53z" />
<glyph unicode="&#xf2;" d="M104 109v806l113 105h514l113 -105v-806l-115 -109h-510zM324 1382h198l70 -258h-148zM338 193h272v638h-272v-638z" />
<glyph unicode="&#xf3;" d="M104 109v806l113 105h514l113 -105v-806l-115 -109h-510zM338 193h272v638h-272v-638zM367 1124l69 258h199l-121 -258h-147z" />
<glyph unicode="&#xf4;" d="M104 109v806l113 105h514l113 -105v-806l-115 -109h-510zM221 1124l160 258h192l156 -258h-125l-129 123l-129 -123h-125zM338 193h272v638h-272v-638z" />
<glyph unicode="&#xf5;" d="M104 109v806l113 105h514l113 -105v-806l-115 -109h-510zM152 1247l108 105h375l63 61l99 -102l-117 -113h-373l-59 -53zM338 193h272v638h-272v-638z" />
<glyph unicode="&#xf6;" d="M104 109v806l113 105h514l113 -105v-806l-115 -109h-510zM190 1143v223h222v-223h-222zM338 193h272v638h-272v-638zM537 1143v223h219v-223h-219z" />
<glyph unicode="&#xf7;" horiz-adv-x="1021" d="M68 598v176h886v-176h-886zM393 324q0 49 34.5 83.5t84.5 34.5t84.5 -34.5t34.5 -83.5q0 -50 -34.5 -84.5t-84.5 -34.5t-84.5 34.5t-34.5 84.5zM393 1051q0 49 34.5 83.5t84.5 34.5t84.5 -34.5t34.5 -83.5t-34.5 -84t-84.5 -35t-84.5 35t-34.5 84z" />
<glyph unicode="&#xf8;" horiz-adv-x="970" d="M53 -37l92 125l-28 25v800l112 107h512l43 -41l82 115l52 -41l-87 -117l23 -27v-800l-115 -109h-508l-43 43l-82 -115zM348 358l270 402v74h-270v-476zM350 193h268v464l-268 -391v-73z" />
<glyph unicode="&#xf9;" horiz-adv-x="944" d="M104 109v911h236v-830h266v830h234v-1020h-234v59l-59 -59h-338zM338 1382h199l69 -258h-147z" />
<glyph unicode="&#xfa;" horiz-adv-x="944" d="M104 109v911h236v-830h266v830h234v-1020h-234v59l-59 -59h-338zM338 1124l70 258h198l-121 -258h-147z" />
<glyph unicode="&#xfb;" horiz-adv-x="944" d="M104 109v911h236v-830h266v830h234v-1020h-234v59l-59 -59h-338zM219 1124l160 258h192l156 -258h-125l-129 123l-129 -123h-125z" />
<glyph unicode="&#xfc;" horiz-adv-x="944" d="M104 109v911h236v-830h266v830h234v-1020h-234v59l-59 -59h-338zM190 1143v223h222v-223h-222zM537 1143v223h219v-223h-219z" />
<glyph unicode="&#xfd;" horiz-adv-x="946" d="M104 113v907h236v-827h270v827h232v-1253l-113 -109h-493l-105 111v168h217v-115h262v239l-61 -61h-338zM362 1124l70 258h199l-121 -258h-148z" />
<glyph unicode="&#xfe;" horiz-adv-x="950" d="M104 -342v1708h236v-405l59 59h349l98 -102v-805l-113 -113h-334l-61 63v-405h-234zM340 190h270v641h-270v-641z" />
<glyph unicode="&#xff;" horiz-adv-x="946" d="M104 113v907h236v-827h270v827h232v-1253l-113 -109h-493l-105 111v168h217v-115h262v239l-61 -61h-338zM190 1143v223h222v-223h-222zM537 1143v223h219v-223h-219z" />
<glyph unicode="&#x152;" horiz-adv-x="1433" d="M104 135v1098l136 133h1089v-229h-416v-320h383v-225h-383v-361h416v-231h-1089zM348 209h322v948h-322v-948z" />
<glyph unicode="&#x153;" horiz-adv-x="1454" d="M104 109v804l109 107h463l59 -55l53 55h461l101 -102v-445l-510 -72v-217h274v154h236v-234l-103 -104h-452l-62 57l-59 -57h-459zM340 193h270v641h-270v-641zM842 543l272 41v252h-272v-293z" />
<glyph unicode="&#x178;" horiz-adv-x="845" d="M-8 1366h262l147 -471q7 -23 11 -51t6.5 -62t5.5 -53q2 17 4 52t5.5 63t10.5 51l148 471h262l-311 -846v-520h-240v520zM141 1475v223h221v-223h-221zM487 1475v223h220v-223h-220z" />
<glyph unicode="&#x2c6;" horiz-adv-x="1024" d="M258 1124l160 258h192l156 -258h-125l-129 123l-129 -123h-125z" />
<glyph unicode="&#x2dc;" horiz-adv-x="1026" d="M190 1247l109 105h375l63 61l99 -102l-117 -113h-373l-59 -53z" />
<glyph unicode="&#x2000;" horiz-adv-x="937" />
<glyph unicode="&#x2001;" horiz-adv-x="1874" />
<glyph unicode="&#x2002;" horiz-adv-x="937" />
<glyph unicode="&#x2003;" horiz-adv-x="1874" />
<glyph unicode="&#x2004;" horiz-adv-x="624" />
<glyph unicode="&#x2005;" horiz-adv-x="468" />
<glyph unicode="&#x2006;" horiz-adv-x="312" />
<glyph unicode="&#x2007;" horiz-adv-x="312" />
<glyph unicode="&#x2008;" horiz-adv-x="234" />
<glyph unicode="&#x2009;" horiz-adv-x="374" />
<glyph unicode="&#x200a;" horiz-adv-x="104" />
<glyph unicode="&#x2010;" horiz-adv-x="475" d="M0 518v193h475v-193h-475z" />
<glyph unicode="&#x2011;" horiz-adv-x="475" d="M0 518v193h475v-193h-475z" />
<glyph unicode="&#x2012;" horiz-adv-x="475" d="M0 518v193h475v-193h-475z" />
<glyph unicode="&#x2013;" horiz-adv-x="946" d="M104 518v193h738v-193h-738z" />
<glyph unicode="&#x2014;" horiz-adv-x="1449" d="M104 518v193h1242v-193h-1242z" />
<glyph unicode="&#x2018;" horiz-adv-x="538" d="M147 784v299q0 2 21.5 65t45.5 134.5t28 83.5h73v-283h76v-299h-244z" />
<glyph unicode="&#x2019;" horiz-adv-x="538" d="M147 1067v299h244v-299q0 -2 -21 -65l-45 -135t-28 -83h-74v283h-76z" />
<glyph unicode="&#x201a;" horiz-adv-x="538" d="M147 0v299h244v-299q0 -2 -21 -65l-45 -135t-28 -83h-74v283h-76z" />
<glyph unicode="&#x201c;" horiz-adv-x="868" d="M147 784v299q0 2 21.5 65t45.5 134.5t28 83.5h73v-283h76v-299h-244zM477 784v299q0 2 20.5 64t45 136.5t26.5 82.5h74v-283h78v-299h-244z" />
<glyph unicode="&#x201d;" horiz-adv-x="868" d="M147 1067v299h244v-299q0 -2 -21 -65l-45 -135t-28 -83h-74v283h-76zM477 1067v299h244v-299q0 -2 -21 -65l-45 -135t-28 -83h-74v283h-76z" />
<glyph unicode="&#x201e;" horiz-adv-x="868" d="M147 0v299h244v-299q0 -2 -21 -65l-45 -135t-28 -83h-74v283h-76zM477 0v299h244v-299q0 -2 -21 -65l-45 -135t-28 -83h-74v283h-76z" />
<glyph unicode="&#x2022;" horiz-adv-x="567" d="M0 694q0 118 84 200.5t203 82.5q115 0 197.5 -83.5t82.5 -199.5t-82 -200t-198 -84q-119 0 -203 83t-84 201z" />
<glyph unicode="&#x2026;" horiz-adv-x="1562" d="M150 0v295h241v-295h-241zM659 0v295h242v-295h-242zM1171 0v295h242v-295h-242z" />
<glyph unicode="&#x202f;" horiz-adv-x="374" />
<glyph unicode="&#x2039;" horiz-adv-x="561" d="M106 496l162 430h185l-166 -430l168 -412h-183z" />
<glyph unicode="&#x203a;" horiz-adv-x="561" d="M106 926h183l166 -412l-164 -430h-182l165 430z" />
<glyph unicode="&#x205f;" horiz-adv-x="468" />
<glyph unicode="&#x20ac;" horiz-adv-x="983" d="M-31 627l33 75h148v78h-181l33 76h148v375l135 135h481l137 -135v-178l-241 -35v139h-271v-301h455l-33 -76h-422v-78h389l-32 -75h-357v-418h271v180l243 37v-295l-133 -131h-487l-135 135v492h-181z" />
<glyph unicode="&#x2122;" horiz-adv-x="1388" d="M8 1206v168h506v-168h-162v-671h-180v671h-164zM575 535v839h248l131 -524l133 524h248v-839h-168v507l-131 -507h-162l-133 507v-507h-166z" />
<glyph unicode="&#x25fc;" horiz-adv-x="1024" d="M0 0v1024h1024v-1024h-1024z" />
<glyph unicode="&#xfb01;" horiz-adv-x="935" d="M43 834v186h92v229l115 117h289v-180h-170v-166h168v-186h-170v-834h-234v834h-90zM594 0v1020h233v-1020h-233zM594 1143v223h237v-223h-237z" />
<glyph unicode="&#xfb02;" horiz-adv-x="929" d="M43 834v186h92v229l115 117h289v-180h-170v-166h168v-186h-170v-834h-234v834h-90zM592 0v1366h233v-1366h-233z" />
</font>
</defs>
</svg>
