<?xml version="1.0" standalone="no"?>
<!DOCTYPE svg PUBLIC "-//W3C//DTD SVG 1.1//EN" "http://www.w3.org/Graphics/SVG/1.1/DTD/svg11.dtd" >
<svg xmlns="http://www.w3.org/2000/svg">
<metadata></metadata>
<defs>
<font id="diamanteef-boldregular" horiz-adv-x="964" >
<font-face units-per-em="2048" ascent="1638" descent="-410" />
<missing-glyph horiz-adv-x="475" />
<glyph horiz-adv-x="0" />
<glyph horiz-adv-x="682" />
<glyph unicode=" "  horiz-adv-x="475" />
<glyph unicode="&#x09;" horiz-adv-x="475" />
<glyph unicode="&#xa0;" horiz-adv-x="475" />
<glyph unicode="!" horiz-adv-x="571" d="M141 0v307h287v-307h-287zM143 375v991h287v-991h-287z" />
<glyph unicode="&#x22;" horiz-adv-x="937" d="M166 1366h252l-43 -547h-168zM522 1366h250l-41 -547h-168z" />
<glyph unicode="#" horiz-adv-x="1318" d="M41 373l41 239h205l26 168h-204l41 240h204l58 346h274l-59 -346h174l57 346h272l-57 -346h205l-41 -240h-205l-26 -168h204l-41 -239h-204l-64 -373h-272l63 373h-174l-61 -373h-275l64 373h-205zM561 612h172l29 168h-172z" />
<glyph unicode="$" horiz-adv-x="935" d="M68 160v303l294 47v-262h209v239l-501 295v428l151 156h129v127h256v-127h109l153 -149v-248l-295 -49v202h-206v-178l499 -293v-495l-155 -156h-123v-121h-242v121h-119z" />
<glyph unicode="%" horiz-adv-x="1538" d="M94 713v522l127 131h326l127 -131v-522l-125 -123h-330zM311 752h146v446h-146v-446zM395 0l615 1366h141l-614 -1366h-142zM870 125v512l129 125h316l129 -125v-512l-127 -125h-320zM1083 164h148v436h-148v-436z" />
<glyph unicode="&#x26;" horiz-adv-x="1064" d="M82 123v469l115 121l-115 112v422l117 119h424v-221h-261v-324h166v-225h-166v-369h330v664h-94v119h410v-119h-66v-768l-119 -123h-624z" />
<glyph unicode="'" horiz-adv-x="583" d="M166 1366h252l-43 -547h-166z" />
<glyph unicode="(" horiz-adv-x="575" d="M143 -186v1511l93 156h247l-96 -154v-1515l96 -154h-247z" />
<glyph unicode=")" horiz-adv-x="575" d="M92 -342l96 154v1515l-96 154h248l92 -156v-1511l-92 -156h-248z" />
<glyph unicode="*" horiz-adv-x="833" d="M66 1061l51 149l221 -82l-4 238h162l-4 -238l221 82l55 -149l-227 -76l141 -188l-127 -95l-141 197l-140 -197l-129 97l144 188z" />
<glyph unicode="+" horiz-adv-x="1021" d="M68 573v246h311v314h266v-314h309v-246h-309v-313h-266v313h-311z" />
<glyph unicode="," horiz-adv-x="575" d="M143 0v315h289v-315q-100 -287 -108 -307h-93v307h-88z" />
<glyph unicode="-" horiz-adv-x="477" d="M0 502v223h477v-223h-477z" />
<glyph unicode="." horiz-adv-x="571" d="M143 0v315h285v-315h-285z" />
<glyph unicode="/" horiz-adv-x="886" d="M31 -61l661 1488h221l-661 -1488h-221z" />
<glyph unicode="0" horiz-adv-x="929" d="M68 154v1058l153 154h486l153 -154v-1058l-151 -154h-490zM362 248h203v868h-203v-868z" />
<glyph unicode="1" horiz-adv-x="929" d="M197 1143v135l247 88h228v-1366h-291v1143h-184z" />
<glyph unicode="2" horiz-adv-x="931" d="M66 0v561l143 144l364 116v293h-215v-188l-292 -43v331l153 152h494l153 -156v-493l-141 -144l-369 -116v-197h506v-260h-796z" />
<glyph unicode="3" horiz-adv-x="927" d="M63 152v292l293 50v-250h215v350h-182v207h184v311h-215v-238l-292 50v282l157 160h484l157 -158v-381l-129 -133l129 -129v-418l-153 -147h-496z" />
<glyph unicode="4" horiz-adv-x="929" d="M12 285v223l383 858h420v-854h92v-227h-94v-285h-291v285h-510zM264 514h260v576z" />
<glyph unicode="5" horiz-adv-x="929" d="M66 156v284l294 56v-246h211v389h-354l-147 152v575h753v-260h-463v-205h347l157 -153v-594l-155 -154h-488z" />
<glyph unicode="6" horiz-adv-x="929" d="M66 156v1054l151 156h492l155 -156v-229l-293 -47v182h-213v-340l88 88h261l155 -151v-561l-153 -152h-490zM358 250h213v364h-213v-364z" />
<glyph unicode="7" horiz-adv-x="927" d="M47 1106v260h834v-205l-498 -1161h-309l483 1106h-510z" />
<glyph unicode="8" horiz-adv-x="929" d="M68 152v417l127 125l-125 129v389l155 154h480l155 -154v-389l-125 -129l127 -125v-417l-153 -152h-488zM360 248h209v352h-209v-352zM362 803h205v313h-205v-313z" />
<glyph unicode="9" horiz-adv-x="931" d="M63 152v231l295 45v-182h215v336l-86 -86h-262l-157 151v565l153 154h494l153 -158v-1054l-153 -154h-496zM362 743h211v369h-211v-369z" />
<glyph unicode=":" horiz-adv-x="571" d="M143 0v315h285v-315h-285zM145 705v315h283v-315h-283z" />
<glyph unicode=";" horiz-adv-x="575" d="M143 0v315h289v-315q-100 -287 -108 -307h-93v307h-88zM147 705v315h283v-315h-283z" />
<glyph unicode="&#x3c;" horiz-adv-x="1021" d="M68 573v224l886 450v-262l-606 -301l606 -303v-262z" />
<glyph unicode="=" horiz-adv-x="1021" d="M68 389v246h886v-246h-886zM68 758v246h886v-246h-886z" />
<glyph unicode="&#x3e;" horiz-adv-x="1021" d="M68 119v264l606 301l-606 301v262l886 -452v-224z" />
<glyph unicode="?" horiz-adv-x="972" d="M96 985v227l156 154h485l154 -152v-462l-389 -170v-205h-283v375l379 161v203h-211v-168zM219 0v307h283v-307h-283z" />
<glyph unicode="@" horiz-adv-x="1503" d="M70 371q0 194 94 357.5t257 259t357 95.5q134 0 253 -42t208.5 -118.5t142 -191t52.5 -250.5q0 -93 -31 -188q-17 -51 -45 -99.5t-66 -91t-89 -68.5t-105 -26q-59 0 -102.5 31.5t-55.5 87.5q-41 -62 -109 -97.5t-143 -35.5q-129 0 -209 94t-80 227q0 100 44 193 t127.5 155t185.5 62q68 0 123 -29t86 -86l18 92h158l-78 -399q-14 -68 -14 -92q0 -30 13.5 -52t41.5 -22q32 0 62.5 22.5t52 57.5t37 69t22.5 64q16 66 16 123q0 213 -141.5 340t-357.5 127q-159 0 -290.5 -75.5t-206.5 -207t-75 -290.5q0 -250 159.5 -399.5t410.5 -149.5 q221 0 395 71l37 -141q-183 -72 -430 -72q-320 0 -512 187q-102 96 -157.5 230t-55.5 278zM580 322q0 -72 39.5 -120t109.5 -48q86 0 138.5 78t52.5 169q0 67 -38 113.5t-104 46.5q-87 0 -142.5 -74.5t-55.5 -164.5z" />
<glyph unicode="A" horiz-adv-x="980" d="M14 0l258 1366h437l258 -1366h-314l-47 274h-231l-47 -274h-314zM389 532h205q-8 41 -29 148.5t-31 162.5t-23 142t-19 160q-21 -175 -25 -195z" />
<glyph unicode="B" horiz-adv-x="989" d="M94 0v1366h643l156 -156v-376l-123 -132l125 -124v-422l-160 -156h-641zM387 252h215v326h-215v-326zM387 825h213v291h-213v-291z" />
<glyph unicode="C" horiz-adv-x="985" d="M94 158v1052l156 156h479l158 -156v-313l-293 -41v258h-207v-862h209v297l293 43v-438l-154 -154h-483z" />
<glyph unicode="D" horiz-adv-x="1001" d="M94 0v1366h662l151 -154v-1054l-159 -158h-654zM389 254h225v864h-225v-864z" />
<glyph unicode="E" horiz-adv-x="862" d="M94 0v1366h694v-270h-399v-260h367v-271h-369v-284h399v-281h-692z" />
<glyph unicode="F" horiz-adv-x="819" d="M94 0v1366h697v-268h-402v-260h371v-271h-373v-567h-293z" />
<glyph unicode="G" horiz-adv-x="1003" d="M94 156v1054l152 156h514l149 -152v-266l-291 -41v215h-231v-876h229v336h-153v247h446v-675l-155 -154h-506z" />
<glyph unicode="H" horiz-adv-x="997" d="M94 0v1366h293v-494h225v494h291v-1366h-293v582h-223v-582h-293z" />
<glyph unicode="I" horiz-adv-x="483" d="M94 0v1366h295v-1366h-295z" />
<glyph unicode="J" horiz-adv-x="929" d="M70 156v405l295 35v-346h176v1116h295v-1216l-154 -150h-461z" />
<glyph unicode="K" horiz-adv-x="999" d="M94 0v1366h295v-526l221 526h326l-285 -600l336 -766h-334l-266 637v-637h-293z" />
<glyph unicode="L" horiz-adv-x="761" d="M94 0v1366h293v-1085h346v-281h-639z" />
<glyph unicode="M" horiz-adv-x="1417" d="M94 0v1366h432l156 -713q6 -29 10 -92l17 -178q2 20 5 61t5 62q10 120 16 147l156 713h432v-1366h-268v766q0 62 4.5 175t5.5 157q-31 -244 -51 -332l-172 -766h-267l-174 766q-11 46 -19.5 102t-17.5 126.5t-14 103.5q0 -56 5 -166t5 -166v-766h-266z" />
<glyph unicode="N" horiz-adv-x="1122" d="M94 0v1366h340l293 -725q5 -12 33 -123q5 -19 16.5 -56.5t16.5 -55.5q-2 18 -6.5 54.5t-6.5 55.5q0 2 -2 27t-4 37q-8 46 -8 69v717h262v-1366h-334l-293 731q-9 24 -34 123q-6 21 -17.5 64t-17.5 65q3 -22 7 -66t7 -67q14 -96 14 -127v-723h-266z" />
<glyph unicode="O" horiz-adv-x="993" d="M94 152v1060l154 154h497l154 -154v-1060l-154 -152h-497zM387 250h219v866h-219v-866z" />
<glyph unicode="P" horiz-adv-x="976" d="M94 0v1366h660l151 -152v-587l-160 -154h-358v-473h-293zM387 723h221v391h-221v-391z" />
<glyph unicode="Q" horiz-adv-x="993" d="M94 152v1060l152 154h499l154 -154v-1060l-154 -152h-102v-221h-291v221h-104zM387 250h219v866h-219v-866z" />
<glyph unicode="R" horiz-adv-x="989" d="M94 0v1366h647l154 -156v-376l-127 -132l127 -124v-578h-293v580h-215v-580h-293zM387 821h215v307h-215v-307z" />
<glyph unicode="S" horiz-adv-x="989" d="M94 160v305l295 45v-262h209v239l-502 297v426l152 156h493l154 -147v-250l-295 -47v202h-207v-180l500 -293v-495l-156 -156h-483z" />
<glyph unicode="T" horiz-adv-x="784" d="M8 1092v274h768v-274h-239v-1092h-291v1092h-238z" />
<glyph unicode="U" horiz-adv-x="997" d="M94 156v1210h291v-1114h227v1114h291v-1210l-153 -156h-502z" />
<glyph unicode="V" horiz-adv-x="931" d="M0 1366h301l141 -834q7 -41 17 -208q4 -60 8 -88q2 52 10 163t12 121q0 2 1.5 6t1.5 6l139 834h301l-277 -1366h-379z" />
<glyph unicode="W" horiz-adv-x="1525" d="M27 1366h284l101 -754q1 -9 2 -28.5t2 -28.5q12 -192 20 -283q1 14 6.5 73t6.5 91q6 148 10 176l123 754h368l113 -754q3 -23 14 -176q2 -28 6.5 -82.5t6.5 -81.5q6 52 11.5 166t12.5 174l100 754h285l-196 -1366h-398l-114 768q-6 37 -15 154q-1 16 -4 46t-5 54.5 t-3 46.5q-6 -49 -14 -147q-11 -143 -13 -154l-116 -768h-398z" />
<glyph unicode="X" horiz-adv-x="987" d="M14 0l297 690l-274 676h319l105 -322q5 -15 17 -87t16 -105q3 16 7 48t7 48q1 3 6.5 41t11.5 55l105 322h319l-274 -676l297 -690h-332l-109 332q-16 47 -22 92q-2 14 -5 41t-5 41q0 1 -3 14.5t-3 20.5q-8 -60 -18 -112t-26 -108.5t-27.5 -92.5t-37 -111t-39.5 -117h-332 z" />
<glyph unicode="Y" horiz-adv-x="884" d="M-10 1366h315l113 -420q6 -25 10.5 -56t8.5 -79t5 -57q17 162 25 192l113 420h315l-205 -580q-9 -25 -47.5 -122t-54.5 -166q-1 -3 -1 -51v-118t0.5 -138t0.5 -125.5v-65.5h-291v65.5t0.5 125.5t0.5 138v118t-1 51q-12 52 -27 95.5t-38 99t-37 93.5z" />
<glyph unicode="Z" horiz-adv-x="925" d="M59 0v231l426 830q4 8 36 32t50 35q-17 -6 -57 -18t-49 -12h-373v268h774v-211l-428 -831q-8 -15 -39.5 -40.5t-54.5 -39.5q100 37 121 37h399v-281h-805z" />
<glyph unicode="[" horiz-adv-x="575" d="M133 -342v1823h371v-207h-123v-1409h123v-207h-371z" />
<glyph unicode="\" horiz-adv-x="1024" d="M55 1386h219l662 -1728h-219z" />
<glyph unicode="]" horiz-adv-x="575" d="M72 -135h123v1409h-123v207h370v-1823h-370v207z" />
<glyph unicode="^" horiz-adv-x="1024" d="M10 678l328 688h350l328 -688h-279l-223 475l-225 -475h-279z" />
<glyph unicode="_" horiz-adv-x="1024" d="M0 -96h1024v-246h-1024v246z" />
<glyph unicode="`" horiz-adv-x="1026" d="M362 1374h232l70 -262h-172z" />
<glyph unicode="a" horiz-adv-x="968" d="M94 117v379l123 127h377v180h-207v-121h-268v217l119 121h520l116 -121v-899h-282v68l-64 -68h-317zM371 209h225v240h-225v-240z" />
<glyph unicode="b" horiz-adv-x="962" d="M94 0v1366h287v-414l74 68h297l116 -119v-780l-118 -121h-299l-76 70v-70h-281zM377 225h209v572h-209v-572z" />
<glyph unicode="c" horiz-adv-x="962" d="M94 119v780l119 121h539l116 -117v-260l-284 -35v185h-207v-566h205v201l284 35v-348l-114 -115h-535z" />
<glyph unicode="d" horiz-adv-x="960" d="M94 119v782l119 119h299l72 -70v416h282v-1366h-282v66l-68 -66h-305zM377 225h209v572h-209v-572z" />
<glyph unicode="e" horiz-adv-x="972" d="M94 121v780l119 119h549l117 -119v-432l-506 -68v-178h219v119h280v-225l-116 -117h-535zM373 563l223 31v215h-223v-246z" />
<glyph unicode="f" horiz-adv-x="583" d="M45 797v223h86v215l127 131h317v-211h-163v-135h163v-223h-165v-797h-281v797h-84z" />
<glyph unicode="g" horiz-adv-x="962" d="M94 125v776l119 119h313l66 -64v64h276v-1237l-125 -125h-510l-114 121v164h264v-95h205v215l-68 -63h-305zM379 225h211v570h-211v-570z" />
<glyph unicode="h" horiz-adv-x="962" d="M94 0v1366h283v-414l72 68h305l114 -117v-903h-282v797h-211v-797h-281z" />
<glyph unicode="i" horiz-adv-x="475" d="M94 0v1020h283v-1020h-283zM96 1122v244h283v-244h-283z" />
<glyph unicode="j" horiz-adv-x="473" d="M-37 -131h133v1151h281v-1231l-125 -131h-289v211zM96 1124v242h283v-242h-283z" />
<glyph unicode="k" horiz-adv-x="929" d="M94 0v1366h283v-774l203 428h309l-232 -440l281 -580h-328l-233 506v-506h-283z" />
<glyph unicode="l" horiz-adv-x="468" d="M94 0v1366h281v-1366h-281z" />
<glyph unicode="m" horiz-adv-x="1447" d="M94 0v1020h283v-68l72 68h348l69 -66l68 66h307l113 -119v-901h-283v797h-207v-797h-282v797h-207v-797h-281z" />
<glyph unicode="n" d="M94 0v1020h285v-64l74 64h297l120 -121v-899h-282v795h-211v-795h-283z" />
<glyph unicode="o" d="M94 121v780l125 119h526l125 -119v-780l-127 -121h-522zM377 229h211v566h-211v-566z" />
<glyph unicode="p" d="M94 -342v1362h283v-66l65 66h316l112 -117v-776l-127 -127h-301l-67 70v-412h-281zM377 227h209v568h-209v-568z" />
<glyph unicode="q" horiz-adv-x="962" d="M94 125v772l121 123h311l62 -64v64h280v-1362h-282v408l-62 -66h-309zM377 225h209v568h-209v-568z" />
<glyph unicode="r" horiz-adv-x="622" d="M94 0v1020h283v-66l65 66h156v-223h-221v-797h-283z" />
<glyph unicode="s" horiz-adv-x="948" d="M94 125v197l281 43v-150h203v156l-482 180v350l119 119h522l117 -115v-196l-283 -37v139h-198v-141l481 -181v-372l-117 -117h-516z" />
<glyph unicode="t" horiz-adv-x="604" d="M45 797v223h86v227h281v-227h166v-223h-168v-568h165v-229h-323l-123 121v676h-84z" />
<glyph unicode="u" horiz-adv-x="960" d="M94 123v897h283v-793h209v793h280v-1020h-280v63l-68 -63h-307z" />
<glyph unicode="v" horiz-adv-x="813" d="M12 1020h275l94 -518v-2q-1 -20 1 -43t6 -51.5t5 -43.5l15 -157q15 233 26 297l92 518h275l-205 -1020h-379z" />
<glyph unicode="w" horiz-adv-x="1390" d="M14 1020h283l94 -535q13 -73 17 -198q9 87 25.5 189t30.5 173.5t38 191.5t35 179h315l104 -531q10 -55 27 -202q9 154 16 198l93 535h284l-202 -1020h-351l-104 518q-6 29 -10.5 62.5t-8.5 76.5t-6 64q-12 -138 -24 -203l-103 -518h-350z" />
<glyph unicode="x" horiz-adv-x="888" d="M10 0l252 518l-229 502h295l96 -246q5 -15 8.5 -35t6.5 -45.5t5 -36.5q9 84 21 117l96 246h295l-229 -502l252 -518h-312l-100 254q-16 41 -23 139q-12 -113 -22 -139l-100 -254h-312z" />
<glyph unicode="y" horiz-adv-x="958" d="M94 125v895h285v-793h207v793h278v-1239l-123 -123h-510l-114 125v160h262v-93h207v216l-66 -66h-307z" />
<glyph unicode="z" horiz-adv-x="792" d="M45 0v172l328 580q5 9 18.5 22.5t31 29t21.5 19.5q-84 -28 -98 -28h-264v223l663 2v-170l-325 -580q-5 -9 -34 -39t-42 -41q71 37 102 37h295v-227h-696z" />
<glyph unicode="{" horiz-adv-x="614" d="M33 465v229q63 13 87.5 52.5t24.5 107.5v324q0 166 73 234.5t241 68.5q79 0 155 -6v-240q-14 2 -41 2q-39 0 -59.5 -1t-42 -6t-30.5 -13.5t-17 -25.5t-10 -40t-2 -59v-258q0 -101 -23.5 -155.5t-99.5 -109.5q74 -50 98.5 -109t24.5 -157v-256q0 -28 1 -48.5t6.5 -36.5 t9 -25.5t17.5 -17t21 -10.5t31 -5t37.5 -2h48.5h30v-240q-26 0 -77.5 -2t-77.5 -2q-167 0 -240.5 68t-73.5 233v326q0 77 -22.5 122.5t-89.5 57.5z" />
<glyph unicode="|" horiz-adv-x="1024" d="M379 -342v1708h266v-1708h-266z" />
<glyph unicode="}" horiz-adv-x="614" d="M0 -98h41q40 0 59.5 1t42 5.5t31.5 13t18 25.5t11 40.5t2 59.5v256q0 102 23.5 156t99.5 110q-74 48 -98.5 107.5t-24.5 157.5v258q0 37 -2 61t-12 41t-18 25t-33 12.5t-43 5t-60 0.5h-6q-21 0 -31 -2v240q18 1 50 2.5t58 2.5t50 1q168 0 240.5 -68t72.5 -235v-324 q0 -76 22.5 -121t88.5 -59v-232q-61 -13 -86 -52t-25 -105v-326q0 -166 -72.5 -233.5t-240.5 -67.5q-26 0 -79 2t-79 2v240z" />
<glyph unicode="~" horiz-adv-x="1366" d="M84 578q75 127 108 168q82 101 203 117q27 3 56 3q94 0 266 -65q9 -3 34.5 -13.5t37 -14.5t34 -11.5t37.5 -11t35.5 -6.5t38.5 -3q64 0 100 27.5t76 91.5l172 -96q-75 -126 -137 -182q-110 -95 -244 -95q-23 0 -48.5 3.5t-42 6.5t-48 13t-41 13t-47 16.5t-41.5 15.5 q-12 4 -45.5 16.5t-54 19t-49 13t-50.5 6.5q-37 0 -63.5 -8.5t-49.5 -31.5t-35 -40t-36 -57z" />
<glyph unicode="&#xa1;" horiz-adv-x="571" d="M141 -348v989h287v-989h-287zM143 711v307h287v-307h-287z" />
<glyph unicode="&#xa2;" horiz-adv-x="909" d="M68 119v778l118 123h160v125h254v-125h125l117 -117v-262l-285 -35v185h-207v-564h205v199l285 37v-348l-115 -115h-131v-125h-254v125h-150z" />
<glyph unicode="&#xa3;" horiz-adv-x="1021" d="M61 0v248h84v330h-84v120h84v512l158 156h481l158 -160v-227l-293 -102v237h-211v-416h326v-120h-326v-330h224v211l292 -60v-399h-893z" />
<glyph unicode="&#xa4;" horiz-adv-x="1363" d="M39 1268l145 145l213 -213q72 47 140 68.5t151 21.5q144 0 277 -88l211 209l143 -143l-209 -209q47 -73 69.5 -139t22.5 -146q0 -141 -88 -280l211 -211l-143 -146l-211 211q-137 -92 -289 -92q-80 0 -146.5 22t-140.5 68l-211 -209l-143 144l211 211q-90 133 -90 280 q0 146 90 283zM403 774q0 -116 81 -198t198 -82t198 82t81 198t-81.5 197.5t-197.5 81.5t-197.5 -81.5t-81.5 -197.5z" />
<glyph unicode="&#xa5;" horiz-adv-x="970" d="M33 1366h317l111 -418q5 -22 9.5 -55.5t9 -80t5.5 -58.5q17 163 25 194l111 418h317l-254 -719h219v-121h-258l-14 -30l-2 -54h274v-120h-274v-322h-287v322h-272v120h274v56q0 1 -4 13t-4 13h-266v123h221z" />
<glyph unicode="&#xa6;" horiz-adv-x="1024" d="M379 313h266v-655h-266v655zM379 655v711h266v-711h-266z" />
<glyph unicode="&#xa7;" horiz-adv-x="1067" d="M145 326v929l117 111h547l109 -106v-166h-248v49h-279v-197l414 -102l115 -121v-934l-117 -131h-539l-117 127v158h246v-49h279v212l-412 103zM393 342l277 -66v435l-277 65v-434z" />
<glyph unicode="&#xa8;" horiz-adv-x="1024" d="M193 1124v242h264v-242h-264zM567 1124v242h264v-242h-264z" />
<glyph unicode="&#xa9;" horiz-adv-x="1552" d="M76 684q0 144 55.5 274t150 224t225 149t273.5 55q142 0 271 -56t222.5 -150t148.5 -224t55 -272t-55 -272t-148 -224.5t-222.5 -151t-271.5 -56.5q-143 0 -273.5 55.5t-225 150t-150 225t-55.5 273.5zM223 684q0 -154 73.5 -284.5t202 -207.5t281.5 -77q151 0 278 79 t199 209.5t72 280.5t-72 280t-199 208.5t-278 78.5q-153 0 -281.5 -77t-202 -207t-73.5 -283zM555 383v600l84 86h270l86 -84v-178l-159 -23v146h-121v-494h121v168l161 23v-246l-84 -84h-274z" />
<glyph unicode="&#xaa;" horiz-adv-x="684" d="M92 551v106h500v-106h-500zM92 827v226l80 77h238v101h-127v-51h-174v112l75 74h332l76 -72v-538h-184v37l-41 -37h-199zM272 887h138v133h-138v-133z" />
<glyph unicode="&#xab;" horiz-adv-x="937" d="M106 494l166 444h217l-170 -444l170 -424h-215zM451 494l163 444h217l-169 -444l169 -424h-213z" />
<glyph unicode="&#xac;" horiz-adv-x="1021" d="M68 301v246h886v-547h-266v301h-620z" />
<glyph unicode="&#xad;" horiz-adv-x="477" d="M0 502v223h477v-223h-477z" />
<glyph unicode="&#xae;" horiz-adv-x="1026" d="M86 1149q0 176 126 299t302 123t301 -123t125 -299t-125.5 -300t-300.5 -124q-176 0 -302 124t-126 300zM176 1149q0 -139 98 -237.5t238 -98.5t238 98.5t98 237.5t-98.5 236.5t-237.5 97.5t-237.5 -97.5t-98.5 -236.5zM385 926v442h209l47 -47v-127l-39 -41l39 -39v-188 h-92v188h-72v-188h-92zM479 1192h70v100h-70v-100z" />
<glyph unicode="&#xaf;" horiz-adv-x="1026" d="M215 1186v172h596v-172h-596z" />
<glyph unicode="&#xb0;" horiz-adv-x="800" d="M92 1085q0 125 91 213t216 88q126 0 218 -87.5t92 -213.5q0 -127 -91 -216t-219 -89q-127 0 -217 89t-90 216zM246 1085q0 -63 45 -108t108 -45q64 0 110 44.5t46 108.5t-46 108t-110 44q-63 0 -108 -44.5t-45 -107.5z" />
<glyph unicode="&#xb1;" horiz-adv-x="1021" d="M68 102v246h886v-246h-886zM68 731v246h311v313h266v-313h309v-246h-309v-315h-266v315h-311z" />
<glyph unicode="&#xb2;" horiz-adv-x="587" d="M29 526v355l98 94l221 65v144h-106v-78l-213 -29v191l106 98h320l104 -100v-308l-96 -92l-223 -67v-86h319v-187h-530z" />
<glyph unicode="&#xb3;" horiz-adv-x="589" d="M29 621v184l196 31v-152h133v203h-116v133h118v184h-133v-147l-198 33v178l104 98h320l104 -98v-238l-84 -78l82 -78v-256l-102 -92h-324z" />
<glyph unicode="&#xb4;" horiz-adv-x="1026" d="M362 1112l70 262h232l-129 -262h-173z" />
<glyph unicode="&#xb6;" horiz-adv-x="1363" d="M111 1006q0 360 473 360h686v-205h-150v-1503h-225v1503h-170v-1503h-225v999h-21q-161 0 -264.5 94.5t-103.5 254.5z" />
<glyph unicode="&#xb7;" horiz-adv-x="571" d="M143 469v315h285v-315h-285z" />
<glyph unicode="&#xb8;" horiz-adv-x="1024" d="M373 -242l73 279l93 -2l-31 -162l143 -53v-107l-155 -192h-84l108 196z" />
<glyph unicode="&#xb9;" horiz-adv-x="587" d="M106 1202v109l168 55h160v-840h-211v676h-117z" />
<glyph unicode="&#xba;" horiz-adv-x="681" d="M90 551v106h502v-106h-502zM92 829v461l84 76h330l84 -76v-461l-86 -77h-326zM279 903h124v324h-124v-324z" />
<glyph unicode="&#xbb;" horiz-adv-x="937" d="M106 70l170 444l-170 424h216l167 -426l-165 -442h-218zM451 70l170 444l-170 424h213l167 -426l-163 -442h-217z" />
<glyph unicode="&#xbc;" horiz-adv-x="1626" d="M76 1202v109l168 55h159v-840h-210v676h-117zM406 0l661 1366h119l-662 -1366h-118zM973 168v151l246 519h286v-502h58v-168h-60v-168h-211v168h-319zM1167 336h127v258z" />
<glyph unicode="&#xbd;" horiz-adv-x="1626" d="M66 1202v109l167 55h160v-840h-211v676h-116zM375 0l661 1366h117l-659 -1366h-119zM1026 0v354l98 92l224 68v141h-109v-108l-213 -29v221l107 99h321l105 -101v-305l-97 -94l-225 -66v-86h319v-186h-530z" />
<glyph unicode="&#xbe;" horiz-adv-x="1624" d="M12 621v184l197 31v-152h133v203h-117v133h119v184h-133v-147l-199 33v178l105 98h319l105 -98v-238l-84 -78l82 -78v-256l-103 -92h-323zM442 0l662 1366h117l-660 -1366h-119zM1018 168v151l248 519h284v-502h58v-168h-58v-168h-211v168h-321zM1214 336h125v258z" />
<glyph unicode="&#xbf;" horiz-adv-x="972" d="M82 -197v463l389 170v205h283v-375l-379 -162v-202h211v168l291 -37v-228l-156 -153h-485zM473 711v307h283v-307h-283z" />
<glyph unicode="&#xc0;" horiz-adv-x="980" d="M14 0l258 1366h437l258 -1366h-314l-47 274h-231l-47 -274h-314zM309 1737h232l69 -262h-172zM389 532h205q-8 41 -29 148.5t-31 162.5t-23 142t-19 160q-21 -175 -25 -195z" />
<glyph unicode="&#xc1;" horiz-adv-x="980" d="M14 0l258 1366h437l258 -1366h-314l-47 274h-231l-47 -274h-314zM373 1475l69 262h232l-129 -262h-172zM389 532h205q-8 41 -29 148.5t-31 162.5t-23 142t-19 160q-21 -175 -25 -195z" />
<glyph unicode="&#xc2;" horiz-adv-x="980" d="M14 0l258 1366h437l258 -1366h-314l-47 274h-231l-47 -274h-314zM213 1475l168 260h227l162 -260h-145l-133 114l-138 -114h-141zM389 532h205q-8 41 -29 148.5t-31 162.5t-23 142t-19 160q-21 -175 -25 -195z" />
<glyph unicode="&#xc3;" horiz-adv-x="980" d="M14 0l258 1366h437l258 -1366h-314l-47 274h-231l-47 -274h-314zM147 1546l121 117h387l66 63l115 -116l-127 -123h-385l-66 -60zM389 532h205q-8 41 -29 148.5t-31 162.5t-23 142t-19 160q-21 -175 -25 -195z" />
<glyph unicode="&#xc4;" horiz-adv-x="980" d="M14 0l258 1366h437l258 -1366h-314l-47 274h-231l-47 -274h-314zM170 1475v241h264v-241h-264zM389 532h205q-8 41 -29 148.5t-31 162.5t-23 142t-19 160q-21 -175 -25 -195zM545 1475v241h264v-241h-264z" />
<glyph unicode="&#xc5;" horiz-adv-x="980" d="M14 0l258 1366h437l258 -1366h-314l-47 274h-231l-47 -274h-314zM262 1663q0 95 67.5 162t162.5 67t162 -67t67 -162t-67 -162t-162 -67t-162.5 67t-67.5 162zM389 532h205q-8 41 -29 148.5t-31 162.5t-23 142t-19 160q-21 -175 -25 -195zM395 1663q0 -40 28.5 -68 t68.5 -28t68 28t28 68t-28 68t-68 28t-68.5 -28t-28.5 -68z" />
<glyph unicode="&#xc6;" horiz-adv-x="1454" d="M-27 0l510 1366h887v-274h-405v-256h372v-273h-372v-282h403v-281h-696v270h-275l-98 -270h-326zM473 526h199v582z" />
<glyph unicode="&#xc7;" horiz-adv-x="985" d="M94 158v1052l156 156h479l158 -156v-313l-293 -41v258h-207v-862h209v297l293 43v-438l-154 -154h-192l-23 -127l142 -53v-107l-156 -192h-84l108 196l-147 41l66 242h-197z" />
<glyph unicode="&#xc8;" horiz-adv-x="862" d="M94 0v1366h694v-270h-399v-260h367v-271h-369v-284h399v-281h-692zM291 1737h231l70 -262h-172z" />
<glyph unicode="&#xc9;" horiz-adv-x="862" d="M94 0v1366h694v-270h-399v-260h367v-271h-369v-284h399v-281h-692zM291 1475l69 262h232l-129 -262h-172z" />
<glyph unicode="&#xca;" horiz-adv-x="862" d="M94 0v1366h694v-270h-399v-260h367v-271h-369v-284h399v-281h-692zM164 1475l168 260h227l162 -260h-146l-133 114l-137 -114h-141z" />
<glyph unicode="&#xcb;" horiz-adv-x="862" d="M94 0v1366h694v-270h-399v-260h367v-271h-369v-284h399v-281h-692zM121 1475v241h264v-241h-264zM496 1475v241h264v-241h-264z" />
<glyph unicode="&#xcc;" horiz-adv-x="483" d="M70 1737h231l70 -262h-172zM94 0v1366h295v-1366h-295z" />
<glyph unicode="&#xcd;" horiz-adv-x="483" d="M86 0v1366h295v-1366h-295zM104 1475l70 262h232l-130 -262h-172z" />
<glyph unicode="&#xce;" horiz-adv-x="483" d="M-37 1475l168 260h227l162 -260h-145l-133 114l-138 -114h-141zM94 0v1366h295v-1366h-295z" />
<glyph unicode="&#xcf;" horiz-adv-x="483" d="M41 1475v243h166v-243h-166zM94 0v1366h295v-1366h-295zM276 1475v243h166v-243h-166z" />
<glyph unicode="&#xd0;" horiz-adv-x="1001" d="M10 582v290h84v494h662l151 -154v-1054l-159 -158h-654v582h-84zM389 254h225v864h-225v-246h129v-290h-129v-328z" />
<glyph unicode="&#xd1;" horiz-adv-x="1122" d="M94 0v1366h340l293 -725q5 -12 33 -123q5 -19 16.5 -56.5t16.5 -55.5q-2 18 -6.5 54.5t-6.5 55.5q0 2 -2 27t-4 37q-8 46 -8 69v717h262v-1366h-334l-293 731q-9 24 -34 123q-6 21 -17.5 64t-17.5 65q3 -22 7 -66t7 -67q14 -96 14 -127v-723h-266zM217 1546l121 117h387 l66 63l114 -116l-127 -123h-385l-65 -60z" />
<glyph unicode="&#xd2;" horiz-adv-x="993" d="M94 152v1060l154 154h497l154 -154v-1060l-154 -152h-497zM326 1737h231l70 -262h-172zM387 250h219v866h-219v-866z" />
<glyph unicode="&#xd3;" horiz-adv-x="993" d="M94 152v1060l154 154h497l154 -154v-1060l-154 -152h-497zM367 1475l69 262h232l-129 -262h-172zM387 250h219v866h-219v-866z" />
<glyph unicode="&#xd4;" horiz-adv-x="993" d="M94 152v1060l154 154h497l154 -154v-1060l-154 -152h-497zM219 1475l168 260h227l162 -260h-145l-133 114l-138 -114h-141zM387 250h219v866h-219v-866z" />
<glyph unicode="&#xd5;" horiz-adv-x="993" d="M94 152v1060l154 154h497l154 -154v-1060l-154 -152h-497zM154 1546l120 117h388l65 63l115 -116l-127 -123h-385l-66 -60zM387 250h219v866h-219v-866z" />
<glyph unicode="&#xd6;" horiz-adv-x="993" d="M94 152v1060l154 154h497l154 -154v-1060l-154 -152h-497zM176 1475v241h264v-241h-264zM387 250h219v866h-219v-866zM551 1475v241h264v-241h-264z" />
<glyph unicode="&#xd7;" horiz-adv-x="1024" d="M63 422l275 274l-275 275l175 174l274 -275l276 275l173 -174l-275 -275l275 -274l-173 -174l-276 274l-274 -274z" />
<glyph unicode="&#xd8;" horiz-adv-x="1013" d="M63 -37l87 148l-52 45v1056l154 154h498l65 -59l66 123l69 -46l-80 -137l33 -39v-1056l-153 -152h-498l-49 55l-68 -129zM391 250h219v553l-219 -400v-153zM395 559l221 412v145h-221v-557z" />
<glyph unicode="&#xd9;" horiz-adv-x="997" d="M94 156v1210h291v-1114h227v1114h291v-1210l-153 -156h-502zM348 1737h232l69 -262h-172z" />
<glyph unicode="&#xda;" horiz-adv-x="997" d="M94 156v1210h291v-1114h227v1114h291v-1210l-153 -156h-502zM348 1475l70 262h231l-129 -262h-172z" />
<glyph unicode="&#xdb;" horiz-adv-x="997" d="M94 156v1210h291v-1114h227v1114h291v-1210l-153 -156h-502zM221 1475l168 260h227l162 -260h-145l-133 114l-138 -114h-141z" />
<glyph unicode="&#xdc;" horiz-adv-x="997" d="M94 156v1210h291v-1114h227v1114h291v-1210l-153 -156h-502zM178 1475v241h264v-241h-264zM553 1475v241h264v-241h-264z" />
<glyph unicode="&#xdd;" horiz-adv-x="884" d="M-10 1366h315l113 -420q6 -25 10.5 -56t8.5 -79t5 -57q17 162 25 192l113 420h315l-205 -580q-9 -25 -47.5 -122t-54.5 -166q-1 -3 -1 -51v-118t0.5 -138t0.5 -125.5v-65.5h-291v65.5t0.5 125.5t0.5 138v118t-1 51q-12 52 -27 95.5t-38 99t-37 93.5zM291 1475l69 262h232 l-127 -262h-174z" />
<glyph unicode="&#xde;" horiz-adv-x="976" d="M94 0v1366h293v-137h367l151 -152v-588l-160 -153h-358v-336h-293zM387 586h221v391h-221v-391z" />
<glyph unicode="&#xdf;" horiz-adv-x="962" d="M94 0v1243l119 123h539l116 -123v-364l-116 -119l116 -115v-526l-118 -119h-299v229h137v420h-133v228h133v262h-211v-1139h-283z" />
<glyph unicode="&#xe0;" horiz-adv-x="968" d="M94 117v379l123 127h377v180h-207v-121h-268v217l119 121h520l116 -121v-899h-282v68l-64 -68h-317zM303 1374h232l69 -262h-172zM371 209h225v240h-225v-240z" />
<glyph unicode="&#xe1;" horiz-adv-x="968" d="M94 117v379l123 127h377v180h-207v-121h-268v217l119 121h520l116 -121v-899h-282v68l-64 -68h-317zM371 209h225v240h-225v-240zM373 1112l69 262h232l-129 -262h-172z" />
<glyph unicode="&#xe2;" horiz-adv-x="968" d="M94 117v379l123 127h377v180h-207v-121h-268v217l119 121h520l116 -121v-899h-282v68l-64 -68h-317zM207 1114l168 260h227l162 -260h-146l-133 115l-137 -115h-141zM371 209h225v240h-225v-240z" />
<glyph unicode="&#xe3;" horiz-adv-x="968" d="M94 117v379l123 127h377v180h-207v-121h-268v217l119 121h520l116 -121v-899h-282v68l-64 -68h-317zM141 1241l121 117h387l66 63l114 -116l-127 -123h-385l-65 -60zM371 209h225v240h-225v-240z" />
<glyph unicode="&#xe4;" horiz-adv-x="968" d="M94 117v379l123 127h377v180h-207v-121h-268v217l119 121h520l116 -121v-899h-282v68l-64 -68h-317zM186 1124v242h265v-242h-265zM371 209h225v240h-225v-240zM561 1124v242h264v-242h-264z" />
<glyph unicode="&#xe5;" horiz-adv-x="968" d="M94 117v379l123 127h377v180h-207v-121h-268v217l119 121h520l116 -121v-899h-282v68l-64 -68h-317zM250 1386q0 97 68 165.5t165 68.5t166.5 -68t69.5 -166t-69 -166.5t-167 -68.5t-165.5 69t-67.5 166zM371 209h225v240h-225v-240zM379 1384q0 -43 30.5 -73.5 t73.5 -30.5t75 30t32 74t-31.5 75.5t-75.5 31.5t-74 -32t-30 -75z" />
<glyph unicode="&#xe6;" horiz-adv-x="1454" d="M94 121v381l119 123h375v182h-201v-121h-268v219l114 115h429l61 -64l63 64h461l113 -115v-436l-500 -70v-180h215v123h283v-221l-115 -121h-581l-68 66l-72 -66h-303zM371 213h217v238h-217v-238zM862 565l213 29v209h-213v-238z" />
<glyph unicode="&#xe7;" horiz-adv-x="962" d="M94 119v780l119 121h539l116 -117v-260l-284 -35v185h-207v-566h205v201l284 35v-348l-116 -115h-222l-22 -127l141 -53v-107l-155 -192h-84l108 196l-147 41l65 242h-217z" />
<glyph unicode="&#xe8;" horiz-adv-x="972" d="M94 121v780l119 119h549l117 -119v-432l-506 -68v-178h219v119h280v-225l-116 -117h-535zM336 1374h231l70 -262h-172zM373 563l223 31v215h-223v-246z" />
<glyph unicode="&#xe9;" horiz-adv-x="972" d="M94 121v780l119 119h549l117 -119v-432l-506 -68v-178h219v119h280v-225l-116 -117h-535zM336 1112l70 262h231l-129 -262h-172zM373 563l223 31v215h-223v-246z" />
<glyph unicode="&#xea;" horiz-adv-x="972" d="M94 121v780l119 119h549l117 -119v-432l-506 -68v-178h219v119h280v-225l-116 -117h-535zM209 1114l168 260h227l162 -260h-145l-134 115l-137 -115h-141zM373 563l223 31v215h-223v-246z" />
<glyph unicode="&#xeb;" horiz-adv-x="972" d="M94 121v780l119 119h549l117 -119v-432l-506 -68v-178h219v119h280v-225l-116 -117h-535zM166 1124v242h264v-242h-264zM373 563l223 31v215h-223v-246zM541 1124v242h264v-242h-264z" />
<glyph unicode="&#xec;" horiz-adv-x="475" d="M86 1374h231l70 -262h-172zM94 0v1020h283v-1020h-283z" />
<glyph unicode="&#xed;" horiz-adv-x="475" d="M86 1112l70 262h231l-129 -262h-172zM94 0v1020h283v-1020h-283z" />
<glyph unicode="&#xee;" horiz-adv-x="475" d="M-41 1114l168 260h227l162 -260h-145l-133 115l-138 -115h-141zM96 0v1020h283v-1020h-283z" />
<glyph unicode="&#xef;" horiz-adv-x="477" d="M39 1122v244h166v-244h-166zM96 0v1020h283v-1020h-283zM272 1122v244h166v-244h-166z" />
<glyph unicode="&#xf0;" d="M94 121v641l125 119h375l-139 196l-170 -123v131l108 78l-147 203h184l84 -115l186 135v-131l-125 -90l295 -403v-641l-127 -121h-522zM377 229h211v426h-211v-426z" />
<glyph unicode="&#xf1;" d="M94 0v1020h285v-64l74 64h297l120 -121v-899h-282v795h-211v-795h-283zM139 1241l121 117h387l66 63l114 -116l-127 -123h-385l-65 -60z" />
<glyph unicode="&#xf2;" d="M94 121v780l125 119h526l125 -119v-780l-127 -121h-522zM311 1374h232l69 -262h-172zM377 229h211v566h-211v-566z" />
<glyph unicode="&#xf3;" d="M94 121v780l125 119h526l125 -119v-780l-127 -121h-522zM358 1112l70 262h231l-129 -262h-172zM377 229h211v566h-211v-566z" />
<glyph unicode="&#xf4;" d="M94 121v780l125 119h526l125 -119v-780l-127 -121h-522zM205 1114l168 260h227l162 -260h-146l-133 115l-137 -115h-141zM377 229h211v566h-211v-566z" />
<glyph unicode="&#xf5;" d="M94 121v780l125 119h526l125 -119v-780l-127 -121h-522zM139 1241l121 117h387l66 63l114 -116l-127 -123h-385l-65 -60zM377 229h211v566h-211v-566z" />
<glyph unicode="&#xf6;" d="M94 121v780l125 119h526l125 -119v-780l-127 -121h-522zM162 1124v242h264v-242h-264zM377 229h211v566h-211v-566zM537 1124v242h264v-242h-264z" />
<glyph unicode="&#xf7;" horiz-adv-x="1021" d="M68 573v246h886v-246h-886zM358 348q0 63 44.5 107.5t107.5 44.5t107.5 -44.5t44.5 -107.5t-44.5 -107t-107.5 -44t-107.5 44t-44.5 107zM358 1044q0 63 44.5 107.5t107.5 44.5t107.5 -44.5t44.5 -107.5t-44.5 -107t-107.5 -44t-107.5 44t-44.5 107z" />
<glyph unicode="&#xf8;" horiz-adv-x="976" d="M41 -33l96 127l-37 31v778l125 117h527l45 -43l86 119l53 -43l-90 -117l31 -37v-778l-127 -121h-523l-45 47l-88 -117zM381 416l213 301v82h-213v-383zM383 229h211v381l-211 -293v-88z" />
<glyph unicode="&#xf9;" horiz-adv-x="960" d="M94 123v897h283v-793h209v793h280v-1020h-280v63l-68 -63h-307zM330 1374h231l70 -262h-172z" />
<glyph unicode="&#xfa;" horiz-adv-x="960" d="M94 123v897h283v-793h209v793h280v-1020h-280v63l-68 -63h-307zM330 1112l69 262h232l-129 -262h-172z" />
<glyph unicode="&#xfb;" horiz-adv-x="960" d="M94 123v897h283v-793h209v793h280v-1020h-280v63l-68 -63h-307zM201 1114l168 260h227l162 -260h-146l-133 115l-137 -115h-141z" />
<glyph unicode="&#xfc;" horiz-adv-x="960" d="M94 123v897h283v-793h209v793h280v-1020h-280v63l-68 -63h-307zM160 1124v242h264v-242h-264zM535 1124v242h264v-242h-264z" />
<glyph unicode="&#xfd;" horiz-adv-x="958" d="M94 125v895h285v-793h207v793h278v-1239l-123 -123h-510l-114 125v160h262v-93h207v216l-66 -66h-307zM360 1112l70 262h232l-130 -262h-172z" />
<glyph unicode="&#xfe;" d="M94 -342v1708h285v-412l63 66h316l112 -117v-776l-127 -127h-299l-69 70v-412h-281zM377 227h209v568h-209v-568z" />
<glyph unicode="&#xff;" horiz-adv-x="958" d="M94 125v895h285v-793h207v793h278v-1239l-123 -123h-510l-114 125v160h262v-93h207v216l-66 -66h-307zM160 1124v242h264v-242h-264zM535 1124v242h264v-242h-264z" />
<glyph unicode="&#x152;" horiz-adv-x="1437" d="M94 156v1056l156 154h1093v-276h-403v-254h371v-271h-371v-284h401v-281h-1093zM389 250h258v866h-258v-866z" />
<glyph unicode="&#x153;" horiz-adv-x="1456" d="M94 121v780l119 119h455l67 -64l64 64h450l113 -115v-436l-500 -70v-182h215v119h283v-219l-113 -117h-442l-70 66l-67 -66h-453zM377 229h209v570h-209v-570zM864 563l213 33v205h-213v-238z" />
<glyph unicode="&#x178;" horiz-adv-x="884" d="M-10 1366h315l113 -420q6 -25 10.5 -56t8.5 -79t5 -57q17 162 25 192l113 420h315l-205 -580q-9 -25 -47.5 -122t-54.5 -166q-1 -3 -1 -51v-118t0.5 -138t0.5 -125.5v-65.5h-291v65.5t0.5 125.5t0.5 138v118t-1 51q-12 52 -27 95.5t-38 99t-37 93.5zM123 1475v241h264 v-241h-264zM498 1475v241h264v-241h-264z" />
<glyph unicode="&#x2c6;" horiz-adv-x="1024" d="M233 1114l168 260h228l162 -260h-146l-133 115l-137 -115h-142z" />
<glyph unicode="&#x2dc;" horiz-adv-x="1024" d="M168 1241l121 117h387l65 63l115 -116l-127 -123h-385l-65 -60z" />
<glyph unicode="&#x2000;" horiz-adv-x="946" />
<glyph unicode="&#x2001;" horiz-adv-x="1892" />
<glyph unicode="&#x2002;" horiz-adv-x="946" />
<glyph unicode="&#x2003;" horiz-adv-x="1892" />
<glyph unicode="&#x2004;" horiz-adv-x="630" />
<glyph unicode="&#x2005;" horiz-adv-x="473" />
<glyph unicode="&#x2006;" horiz-adv-x="315" />
<glyph unicode="&#x2007;" horiz-adv-x="315" />
<glyph unicode="&#x2008;" horiz-adv-x="236" />
<glyph unicode="&#x2009;" horiz-adv-x="378" />
<glyph unicode="&#x200a;" horiz-adv-x="105" />
<glyph unicode="&#x2010;" horiz-adv-x="477" d="M0 502v223h477v-223h-477z" />
<glyph unicode="&#x2011;" horiz-adv-x="477" d="M0 502v223h477v-223h-477z" />
<glyph unicode="&#x2012;" horiz-adv-x="477" d="M0 502v223h477v-223h-477z" />
<glyph unicode="&#x2013;" horiz-adv-x="962" d="M94 502v223h774v-223h-774z" />
<glyph unicode="&#x2014;" horiz-adv-x="1452" d="M94 502v223h1264v-223h-1264z" />
<glyph unicode="&#x2018;" horiz-adv-x="573" d="M143 735v318q101 293 109 313h88v-311h90v-320h-287z" />
<glyph unicode="&#x2019;" horiz-adv-x="573" d="M143 1044v322h287v-319q0 -2 -51 -150t-57 -162h-89v309h-90z" />
<glyph unicode="&#x201a;" horiz-adv-x="573" d="M143 0v322h287v-320q0 -2 -51 -149.5t-57 -161.5h-89v309h-90z" />
<glyph unicode="&#x201c;" horiz-adv-x="940" d="M143 735v318q101 293 109 313h88v-311h90v-320h-287zM510 735v318q100 293 108 313h89v-311h90v-320h-287z" />
<glyph unicode="&#x201d;" horiz-adv-x="940" d="M143 1044v322h287v-319q0 -2 -51 -150t-57 -162h-89v309h-90zM510 1044v322h287v-319q0 -2 -51.5 -150t-57.5 -162h-88v309h-90z" />
<glyph unicode="&#x201e;" horiz-adv-x="940" d="M143 0v322h287v-320q0 -2 -51 -149.5t-57 -161.5h-89v309h-90zM510 0v322h287v-320q0 -2 -51.5 -149.5t-57.5 -161.5h-88v309h-90z" />
<glyph unicode="&#x2022;" horiz-adv-x="567" d="M0 694q0 118 84 200.5t203 82.5q116 0 198 -83.5t82 -199.5t-82 -200t-198 -84q-119 0 -203 82.5t-84 201.5z" />
<glyph unicode="&#x2026;" horiz-adv-x="1683" d="M143 0v315h285v-315h-285zM698 0v315h285v-315h-285zM1255 0v315h285v-315h-285z" />
<glyph unicode="&#x202f;" horiz-adv-x="378" />
<glyph unicode="&#x2039;" horiz-adv-x="595" d="M106 494l166 444h217l-170 -444l170 -424h-215z" />
<glyph unicode="&#x203a;" horiz-adv-x="595" d="M106 70l170 444l-170 424h216l167 -426l-165 -442h-218z" />
<glyph unicode="&#x205f;" horiz-adv-x="473" />
<glyph unicode="&#x20ac;" horiz-adv-x="1011" d="M-33 625l33 77h150v78h-183l33 78h150v352l155 156h481l156 -156v-176l-291 -41v121h-209v-256h435l-33 -78h-402v-78h369l-33 -77h-336v-373h209v160l293 43v-301l-153 -154h-484l-157 158v467h-183z" />
<glyph unicode="&#x2122;" horiz-adv-x="1409" d="M2 1182v194h510v-194h-150v-645h-210v645h-150zM561 537v839h297l105 -465l104 465h297v-839h-197v469l-110 -469h-189l-112 467v-467h-195z" />
<glyph unicode="&#x25fc;" horiz-adv-x="1024" d="M0 0v1024h1024v-1024h-1024z" />
<glyph unicode="&#xfb01;" horiz-adv-x="1003" d="M45 797v223h86v215l127 131h317v-211h-163v-135h163v-223h-165v-797h-281v797h-84zM625 0v1020h282v-1020h-282zM627 1122v244h282v-244h-282z" />
<glyph unicode="&#xfb02;" horiz-adv-x="999" d="M45 797v223h86v215l127 131h317v-211h-163v-135h163v-223h-165v-797h-281v797h-84zM625 0v1366h280v-1366h-280z" />
</font>
</defs>
</svg>
